<?xml version="1.0" encoding="us-ascii" standalone="no"?><svg xmlns="http://www.w3.org/2000/svg" xmlns:xlink="http://www.w3.org/1999/xlink" contentStyleType="text/css" height="671px" preserveAspectRatio="none" style="width:1350px;height:671px;background:#FFFFFF;" version="1.1" viewBox="0 0 1350 671" width="1350px" zoomAndPan="magnify"><defs/><g><!--cluster Autonomous Data Collector Agent--><g id="cluster_Autonomous Data Collector Agent"><path d="M8.5,6 L287.5,6 A3.75,3.75 0 0 1 290,8.5 L297,28.2969 L1340.5,28.2969 A2.5,2.5 0 0 1 1343,30.7969 L1343,661.5 A2.5,2.5 0 0 1 1340.5,664 L8.5,664 A2.5,2.5 0 0 1 6,661.5 L6,8.5 A2.5,2.5 0 0 1 8.5,6 " fill="none" style="stroke:#000000;stroke-width:1.5;"/><line style="stroke:#000000;stroke-width:1.5;" x1="6" x2="297" y1="28.2969" y2="28.2969"/><text fill="#000000" font-family="sans-serif" font-size="14" font-weight="bold" lengthAdjust="spacing" textLength="278" x="10" y="20.9951">Autonomous Data Collector Agent</text></g><!--class AutonomousAgent--><g id="elem_AutonomousAgent"><rect codeLine="5" fill="#F1F1F1" height="129.4844" id="AutonomousAgent" rx="2.5" ry="2.5" style="stroke:#181818;stroke-width:0.5;" width="392" x="478" y="41"/><ellipse cx="602.75" cy="57" fill="#ADD1B2" rx="11" ry="11" style="stroke:#181818;stroke-width:1.0;"/><path d="M605.0938,52.6719 C604.1563,52.2344 603.5625,52.0938 602.6875,52.0938 C600.0625,52.0938 598.0625,54.1719 598.0625,56.8906 L598.0625,58.0156 C598.0625,60.5938 600.1719,62.4844 603.0625,62.4844 C604.2813,62.4844 605.4375,62.1875 606.1875,61.6406 C606.7656,61.2344 607.0938,60.7813 607.0938,60.3906 C607.0938,59.9375 606.7031,59.5469 606.2344,59.5469 C606.0156,59.5469 605.8125,59.625 605.625,59.8125 C605.1719,60.2969 605.1719,60.2969 604.9844,60.3906 C604.5625,60.6563 603.875,60.7813 603.1094,60.7813 C601.0625,60.7813 599.7656,59.6875 599.7656,57.9844 L599.7656,56.8906 C599.7656,55.1094 601.0156,53.7969 602.75,53.7969 C603.3281,53.7969 603.9375,53.9531 604.4063,54.2031 C604.8906,54.4844 605.0625,54.7031 605.1563,55.1094 C605.2188,55.5156 605.25,55.6406 605.3906,55.7656 C605.5313,55.9063 605.7656,56.0156 605.9844,56.0156 C606.25,56.0156 606.5156,55.875 606.6875,55.6563 C606.7969,55.5 606.8281,55.3125 606.8281,54.8906 L606.8281,53.4688 C606.8281,53.0313 606.8125,52.9063 606.7188,52.75 C606.5625,52.4844 606.2813,52.3438 605.9844,52.3438 C605.6875,52.3438 605.4844,52.4375 605.2656,52.75 L605.0938,52.6719 Z " fill="#000000"/><text fill="#000000" font-family="sans-serif" font-size="14" lengthAdjust="spacing" textLength="134" x="623.25" y="61.8467">AutonomousAgent</text><line style="stroke:#181818;stroke-width:0.5;" x1="479" x2="869" y1="73" y2="73"/><text fill="#000000" font-family="sans-serif" font-size="14" lengthAdjust="spacing" textLength="380" x="484" y="89.9951">:manages a database for applications and endpoints;</text><text fill="#000000" font-family="sans-serif" font-size="14" lengthAdjust="spacing" textLength="249" x="484" y="106.292">:handles dynamic request building;</text><text fill="#000000" font-family="sans-serif" font-size="14" lengthAdjust="spacing" textLength="214" x="484" y="122.5889">:performs API authentication;</text><text fill="#000000" font-family="sans-serif" font-size="14" lengthAdjust="spacing" textLength="191" x="484" y="138.8857">:integrates with KeyCloak;</text><text fill="#000000" font-family="sans-serif" font-size="14" lengthAdjust="spacing" textLength="202" x="484" y="155.1826">:manages scheduler service;</text><line style="stroke:#181818;stroke-width:0.5;" x1="479" x2="869" y1="162.4844" y2="162.4844"/></g><!--class Database--><g id="elem_Database"><rect codeLine="13" fill="#F1F1F1" height="145.7813" id="Database" rx="2.5" ry="2.5" style="stroke:#181818;stroke-width:0.5;" width="229" x="22.5" y="263"/><ellipse cx="98.75" cy="279" fill="#ADD1B2" rx="11" ry="11" style="stroke:#181818;stroke-width:1.0;"/><path d="M101.0938,274.6719 C100.1563,274.2344 99.5625,274.0938 98.6875,274.0938 C96.0625,274.0938 94.0625,276.1719 94.0625,278.8906 L94.0625,280.0156 C94.0625,282.5938 96.1719,284.4844 99.0625,284.4844 C100.2813,284.4844 101.4375,284.1875 102.1875,283.6406 C102.7656,283.2344 103.0938,282.7813 103.0938,282.3906 C103.0938,281.9375 102.7031,281.5469 102.2344,281.5469 C102.0156,281.5469 101.8125,281.625 101.625,281.8125 C101.1719,282.2969 101.1719,282.2969 100.9844,282.3906 C100.5625,282.6563 99.875,282.7813 99.1094,282.7813 C97.0625,282.7813 95.7656,281.6875 95.7656,279.9844 L95.7656,278.8906 C95.7656,277.1094 97.0156,275.7969 98.75,275.7969 C99.3281,275.7969 99.9375,275.9531 100.4063,276.2031 C100.8906,276.4844 101.0625,276.7031 101.1563,277.1094 C101.2188,277.5156 101.25,277.6406 101.3906,277.7656 C101.5313,277.9063 101.7656,278.0156 101.9844,278.0156 C102.25,278.0156 102.5156,277.875 102.6875,277.6563 C102.7969,277.5 102.8281,277.3125 102.8281,276.8906 L102.8281,275.4688 C102.8281,275.0313 102.8125,274.9063 102.7188,274.75 C102.5625,274.4844 102.2813,274.3438 101.9844,274.3438 C101.6875,274.3438 101.4844,274.4375 101.2656,274.75 L101.0938,274.6719 Z " fill="#000000"/><text fill="#000000" font-family="sans-serif" font-size="14" lengthAdjust="spacing" textLength="68" x="119.25" y="283.8467">Database</text><line style="stroke:#181818;stroke-width:0.5;" x1="23.5" x2="250.5" y1="295" y2="295"/><text fill="#000000" font-family="sans-serif" font-size="14" lengthAdjust="spacing" textLength="217" x="28.5" y="311.9951">:creates JSON database paths;</text><text fill="#000000" font-family="sans-serif" font-size="14" lengthAdjust="spacing" textLength="183" x="28.5" y="328.292">:retrieves database path;</text><text fill="#000000" font-family="sans-serif" font-size="14" lengthAdjust="spacing" textLength="188" x="28.5" y="344.5889">:initializes new databases;</text><text fill="#000000" font-family="sans-serif" font-size="14" lengthAdjust="spacing" textLength="212" x="28.5" y="360.8857">:handles database responses;</text><text fill="#000000" font-family="sans-serif" font-size="14" lengthAdjust="spacing" textLength="198" x="28.5" y="377.1826">:provides CRUD operations;</text><text fill="#000000" font-family="sans-serif" font-size="14" lengthAdjust="spacing" textLength="129" x="28.5" y="393.4795">:clears databases;</text><line style="stroke:#181818;stroke-width:0.5;" x1="23.5" x2="250.5" y1="400.7813" y2="400.7813"/></g><!--class FileEncryption--><g id="elem_FileEncryption"><rect codeLine="22" fill="#F1F1F1" height="96.8906" id="FileEncryption" rx="2.5" ry="2.5" style="stroke:#181818;stroke-width:0.5;" width="218" x="287" y="287.5"/><ellipse cx="339.75" cy="303.5" fill="#ADD1B2" rx="11" ry="11" style="stroke:#181818;stroke-width:1.0;"/><path d="M342.0938,299.1719 C341.1563,298.7344 340.5625,298.5938 339.6875,298.5938 C337.0625,298.5938 335.0625,300.6719 335.0625,303.3906 L335.0625,304.5156 C335.0625,307.0938 337.1719,308.9844 340.0625,308.9844 C341.2813,308.9844 342.4375,308.6875 343.1875,308.1406 C343.7656,307.7344 344.0938,307.2813 344.0938,306.8906 C344.0938,306.4375 343.7031,306.0469 343.2344,306.0469 C343.0156,306.0469 342.8125,306.125 342.625,306.3125 C342.1719,306.7969 342.1719,306.7969 341.9844,306.8906 C341.5625,307.1563 340.875,307.2813 340.1094,307.2813 C338.0625,307.2813 336.7656,306.1875 336.7656,304.4844 L336.7656,303.3906 C336.7656,301.6094 338.0156,300.2969 339.75,300.2969 C340.3281,300.2969 340.9375,300.4531 341.4063,300.7031 C341.8906,300.9844 342.0625,301.2031 342.1563,301.6094 C342.2188,302.0156 342.25,302.1406 342.3906,302.2656 C342.5313,302.4063 342.7656,302.5156 342.9844,302.5156 C343.25,302.5156 343.5156,302.375 343.6875,302.1563 C343.7969,302 343.8281,301.8125 343.8281,301.3906 L343.8281,299.9688 C343.8281,299.5313 343.8125,299.4063 343.7188,299.25 C343.5625,298.9844 343.2813,298.8438 342.9844,298.8438 C342.6875,298.8438 342.4844,298.9375 342.2656,299.25 L342.0938,299.1719 Z " fill="#000000"/><text fill="#000000" font-family="sans-serif" font-size="14" lengthAdjust="spacing" textLength="104" x="360.25" y="308.3467">FileEncryption</text><line style="stroke:#181818;stroke-width:0.5;" x1="288" x2="504" y1="319.5" y2="319.5"/><text fill="#000000" font-family="sans-serif" font-size="14" lengthAdjust="spacing" textLength="172" x="293" y="336.4951">:sets up file encryption;</text><text fill="#000000" font-family="sans-serif" font-size="14" lengthAdjust="spacing" textLength="191" x="293" y="352.792">:checks encryption status;</text><text fill="#000000" font-family="sans-serif" font-size="14" lengthAdjust="spacing" textLength="206" x="293" y="369.0889">:encrypts and decrypts files;</text><line style="stroke:#181818;stroke-width:0.5;" x1="288" x2="504" y1="376.3906" y2="376.3906"/></g><!--class CLI--><g id="elem_CLI"><rect codeLine="28" fill="#F1F1F1" height="129.4844" id="CLI" rx="2.5" ry="2.5" style="stroke:#181818;stroke-width:0.5;" width="267" x="540.5" y="271.5"/><ellipse cx="658.75" cy="287.5" fill="#ADD1B2" rx="11" ry="11" style="stroke:#181818;stroke-width:1.0;"/><path d="M661.0938,283.1719 C660.1563,282.7344 659.5625,282.5938 658.6875,282.5938 C656.0625,282.5938 654.0625,284.6719 654.0625,287.3906 L654.0625,288.5156 C654.0625,291.0938 656.1719,292.9844 659.0625,292.9844 C660.2813,292.9844 661.4375,292.6875 662.1875,292.1406 C662.7656,291.7344 663.0938,291.2813 663.0938,290.8906 C663.0938,290.4375 662.7031,290.0469 662.2344,290.0469 C662.0156,290.0469 661.8125,290.125 661.625,290.3125 C661.1719,290.7969 661.1719,290.7969 660.9844,290.8906 C660.5625,291.1563 659.875,291.2813 659.1094,291.2813 C657.0625,291.2813 655.7656,290.1875 655.7656,288.4844 L655.7656,287.3906 C655.7656,285.6094 657.0156,284.2969 658.75,284.2969 C659.3281,284.2969 659.9375,284.4531 660.4063,284.7031 C660.8906,284.9844 661.0625,285.2031 661.1563,285.6094 C661.2188,286.0156 661.25,286.1406 661.3906,286.2656 C661.5313,286.4063 661.7656,286.5156 661.9844,286.5156 C662.25,286.5156 662.5156,286.375 662.6875,286.1563 C662.7969,286 662.8281,285.8125 662.8281,285.3906 L662.8281,283.9688 C662.8281,283.5313 662.8125,283.4063 662.7188,283.25 C662.5625,282.9844 662.2813,282.8438 661.9844,282.8438 C661.6875,282.8438 661.4844,282.9375 661.2656,283.25 L661.0938,283.1719 Z " fill="#000000"/><text fill="#000000" font-family="sans-serif" font-size="14" lengthAdjust="spacing" textLength="22" x="679.25" y="292.3467">CLI</text><line style="stroke:#181818;stroke-width:0.5;" x1="541.5" x2="806.5" y1="303.5" y2="303.5"/><text fill="#000000" font-family="sans-serif" font-size="14" lengthAdjust="spacing" textLength="176" x="546.5" y="320.4951">:provides user interface;</text><text fill="#000000" font-family="sans-serif" font-size="14" lengthAdjust="spacing" textLength="189" x="546.5" y="336.792">:handles command inputs;</text><text fill="#000000" font-family="sans-serif" font-size="14" lengthAdjust="spacing" textLength="220" x="546.5" y="353.0889">:manages encryption settings;</text><text fill="#000000" font-family="sans-serif" font-size="14" lengthAdjust="spacing" textLength="255" x="546.5" y="369.3857">:performs data management tasks;</text><text fill="#000000" font-family="sans-serif" font-size="14" lengthAdjust="spacing" textLength="145" x="546.5" y="385.6826">:validates datetime;</text><line style="stroke:#181818;stroke-width:0.5;" x1="541.5" x2="806.5" y1="392.9844" y2="392.9844"/></g><!--class SchedulerService--><g id="elem_SchedulerService"><rect codeLine="36" fill="#F1F1F1" height="178.375" id="SchedulerService" rx="2.5" ry="2.5" style="stroke:#181818;stroke-width:0.5;" width="309" x="842.5" y="247"/><ellipse cx="930.75" cy="263" fill="#ADD1B2" rx="11" ry="11" style="stroke:#181818;stroke-width:1.0;"/><path d="M933.0938,258.6719 C932.1563,258.2344 931.5625,258.0938 930.6875,258.0938 C928.0625,258.0938 926.0625,260.1719 926.0625,262.8906 L926.0625,264.0156 C926.0625,266.5938 928.1719,268.4844 931.0625,268.4844 C932.2813,268.4844 933.4375,268.1875 934.1875,267.6406 C934.7656,267.2344 935.0938,266.7813 935.0938,266.3906 C935.0938,265.9375 934.7031,265.5469 934.2344,265.5469 C934.0156,265.5469 933.8125,265.625 933.625,265.8125 C933.1719,266.2969 933.1719,266.2969 932.9844,266.3906 C932.5625,266.6563 931.875,266.7813 931.1094,266.7813 C929.0625,266.7813 927.7656,265.6875 927.7656,263.9844 L927.7656,262.8906 C927.7656,261.1094 929.0156,259.7969 930.75,259.7969 C931.3281,259.7969 931.9375,259.9531 932.4063,260.2031 C932.8906,260.4844 933.0625,260.7031 933.1563,261.1094 C933.2188,261.5156 933.25,261.6406 933.3906,261.7656 C933.5313,261.9063 933.7656,262.0156 933.9844,262.0156 C934.25,262.0156 934.5156,261.875 934.6875,261.6563 C934.7969,261.5 934.8281,261.3125 934.8281,260.8906 L934.8281,259.4688 C934.8281,259.0313 934.8125,258.9063 934.7188,258.75 C934.5625,258.4844 934.2813,258.3438 933.9844,258.3438 C933.6875,258.3438 933.4844,258.4375 933.2656,258.75 L933.0938,258.6719 Z " fill="#000000"/><text fill="#000000" font-family="sans-serif" font-size="14" lengthAdjust="spacing" textLength="124" x="951.25" y="267.8467">SchedulerService</text><line style="stroke:#181818;stroke-width:0.5;" x1="843.5" x2="1150.5" y1="279" y2="279"/><text fill="#000000" font-family="sans-serif" font-size="14" lengthAdjust="spacing" textLength="255" x="848.5" y="295.9951">:orchestrates data collection tasks;</text><text fill="#000000" font-family="sans-serif" font-size="14" lengthAdjust="spacing" textLength="261" x="848.5" y="312.292">:handles threading and concurrency;</text><text fill="#000000" font-family="sans-serif" font-size="14" lengthAdjust="spacing" textLength="286" x="848.5" y="328.5889">:processes HTTP requests for data sync;</text><text fill="#000000" font-family="sans-serif" font-size="14" lengthAdjust="spacing" textLength="297" x="848.5" y="344.8857">:manages authentication and encryption;</text><text fill="#000000" font-family="sans-serif" font-size="14" lengthAdjust="spacing" textLength="291" x="848.5" y="361.1826">:utilizes cron expressions for scheduling;</text><text fill="#000000" font-family="sans-serif" font-size="14" lengthAdjust="spacing" textLength="263" x="848.5" y="377.4795">:reads from and writes to databases;</text><text fill="#000000" font-family="sans-serif" font-size="14" lengthAdjust="spacing" textLength="261" x="848.5" y="393.7764">:handles service lifecycle and errors;</text><text fill="#000000" font-family="sans-serif" font-size="14" lengthAdjust="spacing" textLength="245" x="848.5" y="410.0732">:parses command-line arguments;</text><line style="stroke:#181818;stroke-width:0.5;" x1="843.5" x2="1150.5" y1="417.375" y2="417.375"/></g><!--class Config--><g id="elem_Config"><rect codeLine="47" fill="#F1F1F1" height="145.7813" id="Config" rx="2.5" ry="2.5" style="stroke:#181818;stroke-width:0.5;" width="267" x="685.5" y="502"/><ellipse cx="791.25" cy="518" fill="#ADD1B2" rx="11" ry="11" style="stroke:#181818;stroke-width:1.0;"/><path d="M793.5938,513.6719 C792.6563,513.2344 792.0625,513.0938 791.1875,513.0938 C788.5625,513.0938 786.5625,515.1719 786.5625,517.8906 L786.5625,519.0156 C786.5625,521.5938 788.6719,523.4844 791.5625,523.4844 C792.7813,523.4844 793.9375,523.1875 794.6875,522.6406 C795.2656,522.2344 795.5938,521.7813 795.5938,521.3906 C795.5938,520.9375 795.2031,520.5469 794.7344,520.5469 C794.5156,520.5469 794.3125,520.625 794.125,520.8125 C793.6719,521.2969 793.6719,521.2969 793.4844,521.3906 C793.0625,521.6563 792.375,521.7813 791.6094,521.7813 C789.5625,521.7813 788.2656,520.6875 788.2656,518.9844 L788.2656,517.8906 C788.2656,516.1094 789.5156,514.7969 791.25,514.7969 C791.8281,514.7969 792.4375,514.9531 792.9063,515.2031 C793.3906,515.4844 793.5625,515.7031 793.6563,516.1094 C793.7188,516.5156 793.75,516.6406 793.8906,516.7656 C794.0313,516.9063 794.2656,517.0156 794.4844,517.0156 C794.75,517.0156 795.0156,516.875 795.1875,516.6563 C795.2969,516.5 795.3281,516.3125 795.3281,515.8906 L795.3281,514.4688 C795.3281,514.0313 795.3125,513.9063 795.2188,513.75 C795.0625,513.4844 794.7813,513.3438 794.4844,513.3438 C794.1875,513.3438 793.9844,513.4375 793.7656,513.75 L793.5938,513.6719 Z " fill="#000000"/><text fill="#000000" font-family="sans-serif" font-size="14" lengthAdjust="spacing" textLength="47" x="811.75" y="522.8467">Config</text><line style="stroke:#181818;stroke-width:0.5;" x1="686.5" x2="951.5" y1="534" y2="534"/><text fill="#000000" font-family="sans-serif" font-size="14" lengthAdjust="spacing" textLength="241" x="691.5" y="550.9951">:initializes configuration settings;</text><text fill="#000000" font-family="sans-serif" font-size="14" lengthAdjust="spacing" textLength="248" x="691.5" y="567.292">:manages threading configuration;</text><text fill="#000000" font-family="sans-serif" font-size="14" lengthAdjust="spacing" textLength="234" x="691.5" y="583.5889">:handles Keycloak configuration;</text><text fill="#000000" font-family="sans-serif" font-size="14" lengthAdjust="spacing" textLength="239" x="691.5" y="599.8857">:sets up database configurations;</text><text fill="#000000" font-family="sans-serif" font-size="14" lengthAdjust="spacing" textLength="255" x="691.5" y="616.1826">:configures logging and encryption;</text><text fill="#000000" font-family="sans-serif" font-size="14" lengthAdjust="spacing" textLength="224" x="691.5" y="632.4795">:reads and updates config files;</text><line style="stroke:#181818;stroke-width:0.5;" x1="686.5" x2="951.5" y1="639.7813" y2="639.7813"/></g><!--link AutonomousAgent to Database--><g id="link_AutonomousAgent_Database"><path codeLine="56" d="M477.803,163.407 C410.126,185.933 334.822,214.31 269,247 C259.38,251.778 249.627,257.142 240.005,262.804 " fill="none" id="AutonomousAgent-Database" style="stroke:#181818;stroke-width:1.0;"/><polygon fill="#000000" points="366.3868,210.4947,375.8656,209.718,373.5988,204.2948,366.3868,210.4947" style="stroke:#000000;stroke-width:1.0;"/><text fill="#000000" font-family="sans-serif" font-size="13" lengthAdjust="spacing" textLength="30" x="380" y="213.0669">uses</text></g><!--link AutonomousAgent to FileEncryption--><g id="link_AutonomousAgent_FileEncryption"><path codeLine="57" d="M596.562,170.15 C551.416,207.257 495.413,253.288 454.069,287.271 " fill="none" id="AutonomousAgent-FileEncryption" style="stroke:#181818;stroke-width:1.0;"/><polygon fill="#000000" points="561.1373,211.7413,569.9911,208.2683,566.2588,203.7275,561.1373,211.7413" style="stroke:#000000;stroke-width:1.0;"/><text fill="#000000" font-family="sans-serif" font-size="13" lengthAdjust="spacing" textLength="30" x="574" y="213.0669">uses</text></g><!--link AutonomousAgent to CLI--><g id="link_AutonomousAgent_CLI"><path codeLine="58" d="M674,170.15 C674,201.711 674,239.727 674,271.295 " fill="none" id="AutonomousAgent-CLI" style="stroke:#181818;stroke-width:1.0;"/><polygon fill="#000000" points="679,213.5664,681.9389,204.5213,676.0611,204.5213,679,213.5664" style="stroke:#000000;stroke-width:1.0;"/><text fill="#000000" font-family="sans-serif" font-size="13" lengthAdjust="spacing" textLength="83" x="688" y="213.0669">controlled by</text></g><!--link AutonomousAgent to SchedulerService--><g id="link_AutonomousAgent_SchedulerService"><path codeLine="59" d="M763.974,170.15 C797.573,193.92 836.35,221.351 872.51,246.932 " fill="none" id="AutonomousAgent-SchedulerService" style="stroke:#181818;stroke-width:1.0;"/><polygon fill="#000000" points="834.0819,211.454,828.395,203.831,825.0004,208.6295,834.0819,211.454" style="stroke:#000000;stroke-width:1.0;"/><text fill="#000000" font-family="sans-serif" font-size="13" lengthAdjust="spacing" textLength="125" x="839" y="213.0669">schedules tasks via</text></g><!--link AutonomousAgent to Config--><g id="link_AutonomousAgent_Config"><path codeLine="60" d="M870.196,137.447 C991.92,161.105 1131.97,198.001 1169,247 C1216.7,310.117 1210.15,357.433 1169,425 C1123.4,499.876 1030.98,537.164 952.554,555.712 " fill="none" id="AutonomousAgent-Config" style="stroke:#181818;stroke-width:1.0;"/><polygon fill="#000000" points="1207.966,340.9722,1209.1021,331.5297,1203.335,332.6653,1207.966,340.9722" style="stroke:#000000;stroke-width:1.0;"/><text fill="#000000" font-family="sans-serif" font-size="13" lengthAdjust="spacing" textLength="90" x="1216" y="340.5669">configures via</text></g><!--link SchedulerService to Config--><g id="link_SchedulerService_Config"><path codeLine="61" d="M930.719,425.25 C911.741,450.518 891.286,477.754 873.131,501.927 " fill="none" id="SchedulerService-Config" style="stroke:#181818;stroke-width:1.0;"/><polygon fill="#000000" points="909.9973,467.5644,917.7792,462.0969,913.0793,458.567,909.9973,467.5644" style="stroke:#000000;stroke-width:1.0;"/><text fill="#000000" font-family="sans-serif" font-size="13" lengthAdjust="spacing" textLength="147" x="922" y="468.0669">retrieves settings from</text></g><!--link CLI to Config--><g id="link_CLI_Config"><path codeLine="62" d="M701.199,400.672 C711.937,423.725 725.044,449.587 739,472 C745.186,481.934 752.159,492.041 759.345,501.841 " fill="none" id="CLI-Config" style="stroke:#181818;stroke-width:1.0;"/><polygon fill="#000000" points="746.4915,467.9014,744.5324,458.5948,739.4363,461.5238,746.4915,467.9014" style="stroke:#000000;stroke-width:1.0;"/><text fill="#000000" font-family="sans-serif" font-size="13" lengthAdjust="spacing" textLength="133" x="753" y="468.0669">modifies settings via</text></g><!--link Database to Config--><g id="link_Database_Config"><path codeLine="63" d="M238.171,409.071 C248.344,414.9 258.718,420.331 269,425 C404.788,486.665 571.374,527.373 685.4,550.422 " fill="none" id="Database-Config" style="stroke:#181818;stroke-width:1.0;"/><polygon fill="#000000" points="394.7675,465.0732,387.0287,459.5451,385.2573,465.1496,394.7675,465.0732" style="stroke:#000000;stroke-width:1.0;"/><text fill="#000000" font-family="sans-serif" font-size="13" lengthAdjust="spacing" textLength="103" x="399" y="468.0669">gets paths from</text></g><!--SRC=[XLLRRjim4FptARRvpmKSe83Xf6tQ80sIz00CjP88KoJBXrEroDsx54MBikN47mQCdNtCxWpzgS9QA8J7c-tpvlxhtGrmoPnRhGpZEzOWN6o2rqftEZYuPfx1Lak9t6iBcmQLlu1_gnNGPwemPGm80i3uMNTCKL4732ggzS8SGasLc35ISEQ5LXHJ5Q2gZ1RAkwifjwM0fDogLwmJ72p-3kWyl0GXAw6Q0chGKjdEmURX5bZmBOqnrYzGL1yRoppLV1M-XH_ORwLckwlJUHrliGeIBJYqUy4nOTwEgLzdLWLdRd7eyVtfv_r4sp3VbkmiUYjm7_cLaDcumWicnL_2A7mzu1Ptb6jOT8QMEWCPg_UY8jJsyTSrQ5fMsdm1uHAPTSSjJkX-4H9l5BUzYGLAqWwzWs2W9WHTCqFA5YtodIjYu3ppePnYZ2L9L3Z-Y2NF3RIzkosdE30DT3Q8zxOroyURBOphhejTX39XfhgiW79Ez9xqvfO45pS6AQUBslVCxKhWdWvO3NA8trvqvvJqb1Ntb0HNqjAMWixRN8VH-8CfutJ77JD3tv8Eeq-6RNAjUB2MMFLpPN1qT6_uzlpya1tc1eyEVLol-C9ovXOR7Rnmy-15qY-t1CC_XkJf1jF73gF9vbQEGrFOwcue-sf59Etrk_8VJGfIrCXx4dCQoLfjPrSZZK-tlvJn8MIs2V5oPnMcLIsQyXgbB_aG3SbGIqB96vkkCKjPu4Al4e-lqbbWjjh1ypFWpDLZWAfAtJHP2ukdIdkFuM2IO5FsWlsEt_lBo-aTN4VhEVXy3dZqWdm4Z_vUnqcyZOgluAK_3pwnqFhmZhja4zWBzawpH7WDnTwcX9FgPSRqccSD90cdrCYYH7Uw4hKemLERmoRBX2QUVFW7oMLNR_y1]--></g></svg>