<?xml version="1.0" encoding="us-ascii" standalone="no"?><svg xmlns="http://www.w3.org/2000/svg" xmlns:xlink="http://www.w3.org/1999/xlink" contentStyleType="text/css" height="562px" preserveAspectRatio="none" style="width:779px;height:562px;background:#FFFFFF;" version="1.1" viewBox="0 0 779 562" width="779px" zoomAndPan="magnify"><defs/><g><!--class CLI--><g id="elem_CLI"><rect codeLine="5" fill="#F1F1F1" height="357.6406" id="CLI" rx="2.5" ry="2.5" style="stroke:#181818;stroke-width:0.5;" width="440" x="332.5" y="7"/><ellipse cx="537.25" cy="23" fill="#ADD1B2" rx="11" ry="11" style="stroke:#181818;stroke-width:1.0;"/><path d="M539.5938,18.6719 C538.6563,18.2344 538.0625,18.0938 537.1875,18.0938 C534.5625,18.0938 532.5625,20.1719 532.5625,22.8906 L532.5625,24.0156 C532.5625,26.5938 534.6719,28.4844 537.5625,28.4844 C538.7813,28.4844 539.9375,28.1875 540.6875,27.6406 C541.2656,27.2344 541.5938,26.7813 541.5938,26.3906 C541.5938,25.9375 541.2031,25.5469 540.7344,25.5469 C540.5156,25.5469 540.3125,25.625 540.125,25.8125 C539.6719,26.2969 539.6719,26.2969 539.4844,26.3906 C539.0625,26.6563 538.375,26.7813 537.6094,26.7813 C535.5625,26.7813 534.2656,25.6875 534.2656,23.9844 L534.2656,22.8906 C534.2656,21.1094 535.5156,19.7969 537.25,19.7969 C537.8281,19.7969 538.4375,19.9531 538.9063,20.2031 C539.3906,20.4844 539.5625,20.7031 539.6563,21.1094 C539.7188,21.5156 539.75,21.6406 539.8906,21.7656 C540.0313,21.9063 540.2656,22.0156 540.4844,22.0156 C540.75,22.0156 541.0156,21.875 541.1875,21.6563 C541.2969,21.5 541.3281,21.3125 541.3281,20.8906 L541.3281,19.4688 C541.3281,19.0313 541.3125,18.9063 541.2188,18.75 C541.0625,18.4844 540.7813,18.3438 540.4844,18.3438 C540.1875,18.3438 539.9844,18.4375 539.7656,18.75 L539.5938,18.6719 Z " fill="#000000"/><text fill="#000000" font-family="sans-serif" font-size="14" lengthAdjust="spacing" textLength="22" x="557.75" y="27.8467">CLI</text><line style="stroke:#181818;stroke-width:0.5;" x1="333.5" x2="771.5" y1="39" y2="39"/><line style="stroke:#181818;stroke-width:0.5;" x1="333.5" x2="771.5" y1="47" y2="47"/><ellipse cx="343.5" cy="60.6484" fill="#84BE84" rx="3" ry="3" style="stroke:#038048;stroke-width:1.0;"/><text fill="#000000" font-family="sans-serif" font-size="14" lengthAdjust="spacing" textLength="34" x="352.5" y="63.9951">init()</text><ellipse cx="343.5" cy="76.9453" fill="#84BE84" rx="3" ry="3" style="stroke:#038048;stroke-width:1.0;"/><text fill="#000000" font-family="sans-serif" font-size="14" lengthAdjust="spacing" textLength="253" x="352.5" y="80.292">enable_threading(is_enabled: bool)</text><ellipse cx="343.5" cy="93.2422" fill="#84BE84" rx="3" ry="3" style="stroke:#038048;stroke-width:1.0;"/><text fill="#000000" font-family="sans-serif" font-size="14" lengthAdjust="spacing" textLength="306" x="352.5" y="96.5889">set_concurrent_threads(thread_count: int)</text><ellipse cx="343.5" cy="109.5391" fill="#84BE84" rx="3" ry="3" style="stroke:#038048;stroke-width:1.0;"/><text fill="#000000" font-family="sans-serif" font-size="14" lengthAdjust="spacing" textLength="262" x="352.5" y="112.8857">enable_encryption(is_enabled: bool)</text><ellipse cx="343.5" cy="125.8359" fill="#84BE84" rx="3" ry="3" style="stroke:#038048;stroke-width:1.0;"/><text fill="#000000" font-family="sans-serif" font-size="14" lengthAdjust="spacing" textLength="167" x="352.5" y="129.1826">reset_encryption_key()</text><ellipse cx="343.5" cy="142.1328" fill="#84BE84" rx="3" ry="3" style="stroke:#038048;stroke-width:1.0;"/><text fill="#000000" font-family="sans-serif" font-size="14" lengthAdjust="spacing" textLength="139" x="352.5" y="145.4795">check_encryption()</text><ellipse cx="343.5" cy="158.4297" fill="#84BE84" rx="3" ry="3" style="stroke:#038048;stroke-width:1.0;"/><text fill="#000000" font-family="sans-serif" font-size="14" lengthAdjust="spacing" textLength="115" x="352.5" y="161.7764">get_endpoints()</text><ellipse cx="343.5" cy="174.7266" fill="#84BE84" rx="3" ry="3" style="stroke:#038048;stroke-width:1.0;"/><text fill="#000000" font-family="sans-serif" font-size="14" lengthAdjust="spacing" textLength="130" x="352.5" y="178.0732">get_applications()</text><ellipse cx="343.5" cy="191.0234" fill="#84BE84" rx="3" ry="3" style="stroke:#038048;stroke-width:1.0;"/><text fill="#000000" font-family="sans-serif" font-size="14" lengthAdjust="spacing" textLength="414" x="352.5" y="194.3701">add_endpoint(name: str, url_endpoint: str, ... , status: int)</text><ellipse cx="343.5" cy="207.3203" fill="#84BE84" rx="3" ry="3" style="stroke:#038048;stroke-width:1.0;"/><text fill="#000000" font-family="sans-serif" font-size="14" lengthAdjust="spacing" textLength="112" x="352.5" y="210.667">list_endpoints()</text><ellipse cx="343.5" cy="223.6172" fill="#84BE84" rx="3" ry="3" style="stroke:#038048;stroke-width:1.0;"/><text fill="#000000" font-family="sans-serif" font-size="14" lengthAdjust="spacing" textLength="223" x="352.5" y="226.9639">get_endpoint(endpoint_id: int)</text><ellipse cx="343.5" cy="239.9141" fill="#84BE84" rx="3" ry="3" style="stroke:#038048;stroke-width:1.0;"/><text fill="#000000" font-family="sans-serif" font-size="14" lengthAdjust="spacing" textLength="353" x="352.5" y="243.2607">update_endpoint(endpoint_id: int, name: str, ... )</text><ellipse cx="343.5" cy="256.2109" fill="#84BE84" rx="3" ry="3" style="stroke:#038048;stroke-width:1.0;"/><text fill="#000000" font-family="sans-serif" font-size="14" lengthAdjust="spacing" textLength="253" x="352.5" y="259.5576">remove_endpoint(endpoint_id: int)</text><ellipse cx="343.5" cy="272.5078" fill="#84BE84" rx="3" ry="3" style="stroke:#038048;stroke-width:1.0;"/><text fill="#000000" font-family="sans-serif" font-size="14" lengthAdjust="spacing" textLength="342" x="352.5" y="275.8545">add_application(name: str, short_name: str, ... )</text><ellipse cx="343.5" cy="288.8047" fill="#84BE84" rx="3" ry="3" style="stroke:#038048;stroke-width:1.0;"/><text fill="#000000" font-family="sans-serif" font-size="14" lengthAdjust="spacing" textLength="127" x="352.5" y="292.1514">list_applications()</text><ellipse cx="343.5" cy="305.1016" fill="#84BE84" rx="3" ry="3" style="stroke:#038048;stroke-width:1.0;"/><text fill="#000000" font-family="sans-serif" font-size="14" lengthAdjust="spacing" textLength="272" x="352.5" y="308.4482">get_application(app_short_name: str)</text><ellipse cx="343.5" cy="321.3984" fill="#84BE84" rx="3" ry="3" style="stroke:#038048;stroke-width:1.0;"/><text fill="#000000" font-family="sans-serif" font-size="14" lengthAdjust="spacing" textLength="290" x="352.5" y="324.7451">update_application(short_name: str, ... )</text><ellipse cx="343.5" cy="337.6953" fill="#84BE84" rx="3" ry="3" style="stroke:#038048;stroke-width:1.0;"/><text fill="#000000" font-family="sans-serif" font-size="14" lengthAdjust="spacing" textLength="302" x="352.5" y="341.042">remove_application(app_short_name: str)</text><ellipse cx="343.5" cy="353.9922" fill="#84BE84" rx="3" ry="3" style="stroke:#038048;stroke-width:1.0;"/><text fill="#000000" font-family="sans-serif" font-size="14" lengthAdjust="spacing" textLength="264" x="352.5" y="357.3389">validate_datetime(datetime_str: str)</text></g><!--class HTTPMethods--><g id="elem_HTTPMethods"><rect codeLine="28" fill="#F1F1F1" height="113.1875" id="HTTPMethods" rx="2.5" ry="2.5" style="stroke:#181818;stroke-width:0.5;" width="131" x="7" y="129.5"/><ellipse cx="22" cy="145.5" fill="#ADD1B2" rx="11" ry="11" style="stroke:#181818;stroke-width:1.0;"/><path d="M24.3438,141.1719 C23.4063,140.7344 22.8125,140.5938 21.9375,140.5938 C19.3125,140.5938 17.3125,142.6719 17.3125,145.3906 L17.3125,146.5156 C17.3125,149.0938 19.4219,150.9844 22.3125,150.9844 C23.5313,150.9844 24.6875,150.6875 25.4375,150.1406 C26.0156,149.7344 26.3438,149.2813 26.3438,148.8906 C26.3438,148.4375 25.9531,148.0469 25.4844,148.0469 C25.2656,148.0469 25.0625,148.125 24.875,148.3125 C24.4219,148.7969 24.4219,148.7969 24.2344,148.8906 C23.8125,149.1563 23.125,149.2813 22.3594,149.2813 C20.3125,149.2813 19.0156,148.1875 19.0156,146.4844 L19.0156,145.3906 C19.0156,143.6094 20.2656,142.2969 22,142.2969 C22.5781,142.2969 23.1875,142.4531 23.6563,142.7031 C24.1406,142.9844 24.3125,143.2031 24.4063,143.6094 C24.4688,144.0156 24.5,144.1406 24.6406,144.2656 C24.7813,144.4063 25.0156,144.5156 25.2344,144.5156 C25.5,144.5156 25.7656,144.375 25.9375,144.1563 C26.0469,144 26.0781,143.8125 26.0781,143.3906 L26.0781,141.9688 C26.0781,141.5313 26.0625,141.4063 25.9688,141.25 C25.8125,140.9844 25.5313,140.8438 25.2344,140.8438 C24.9375,140.8438 24.7344,140.9375 24.5156,141.25 L24.3438,141.1719 Z " fill="#000000"/><text fill="#000000" font-family="sans-serif" font-size="14" lengthAdjust="spacing" textLength="99" x="36" y="150.3467">HTTPMethods</text><line style="stroke:#181818;stroke-width:0.5;" x1="8" x2="137" y1="161.5" y2="161.5"/><ellipse cx="18" cy="175.1484" fill="none" rx="3" ry="3" style="stroke:#038048;stroke-width:1.0;"/><text fill="#000000" font-family="sans-serif" font-size="14" lengthAdjust="spacing" textLength="29" x="27" y="178.4951">GET</text><ellipse cx="18" cy="191.4453" fill="none" rx="3" ry="3" style="stroke:#038048;stroke-width:1.0;"/><text fill="#000000" font-family="sans-serif" font-size="14" lengthAdjust="spacing" textLength="38" x="27" y="194.792">POST</text><ellipse cx="18" cy="207.7422" fill="none" rx="3" ry="3" style="stroke:#038048;stroke-width:1.0;"/><text fill="#000000" font-family="sans-serif" font-size="14" lengthAdjust="spacing" textLength="27" x="27" y="211.0889">PUT</text><ellipse cx="18" cy="224.0391" fill="none" rx="3" ry="3" style="stroke:#038048;stroke-width:1.0;"/><text fill="#000000" font-family="sans-serif" font-size="14" lengthAdjust="spacing" textLength="55" x="27" y="227.3857">DELETE</text><line style="stroke:#181818;stroke-width:0.5;" x1="8" x2="137" y1="234.6875" y2="234.6875"/></g><!--class URLSchemes--><g id="elem_URLSchemes"><rect codeLine="35" fill="#F1F1F1" height="80.5938" id="URLSchemes" rx="2.5" ry="2.5" style="stroke:#181818;stroke-width:0.5;" width="124" x="173.5" y="145.5"/><ellipse cx="188.5" cy="161.5" fill="#ADD1B2" rx="11" ry="11" style="stroke:#181818;stroke-width:1.0;"/><path d="M190.8438,157.1719 C189.9063,156.7344 189.3125,156.5938 188.4375,156.5938 C185.8125,156.5938 183.8125,158.6719 183.8125,161.3906 L183.8125,162.5156 C183.8125,165.0938 185.9219,166.9844 188.8125,166.9844 C190.0313,166.9844 191.1875,166.6875 191.9375,166.1406 C192.5156,165.7344 192.8438,165.2813 192.8438,164.8906 C192.8438,164.4375 192.4531,164.0469 191.9844,164.0469 C191.7656,164.0469 191.5625,164.125 191.375,164.3125 C190.9219,164.7969 190.9219,164.7969 190.7344,164.8906 C190.3125,165.1563 189.625,165.2813 188.8594,165.2813 C186.8125,165.2813 185.5156,164.1875 185.5156,162.4844 L185.5156,161.3906 C185.5156,159.6094 186.7656,158.2969 188.5,158.2969 C189.0781,158.2969 189.6875,158.4531 190.1563,158.7031 C190.6406,158.9844 190.8125,159.2031 190.9063,159.6094 C190.9688,160.0156 191,160.1406 191.1406,160.2656 C191.2813,160.4063 191.5156,160.5156 191.7344,160.5156 C192,160.5156 192.2656,160.375 192.4375,160.1563 C192.5469,160 192.5781,159.8125 192.5781,159.3906 L192.5781,157.9688 C192.5781,157.5313 192.5625,157.4063 192.4688,157.25 C192.3125,156.9844 192.0313,156.8438 191.7344,156.8438 C191.4375,156.8438 191.2344,156.9375 191.0156,157.25 L190.8438,157.1719 Z " fill="#000000"/><text fill="#000000" font-family="sans-serif" font-size="14" lengthAdjust="spacing" textLength="92" x="202.5" y="166.3467">URLSchemes</text><line style="stroke:#181818;stroke-width:0.5;" x1="174.5" x2="296.5" y1="177.5" y2="177.5"/><ellipse cx="184.5" cy="191.1484" fill="none" rx="3" ry="3" style="stroke:#038048;stroke-width:1.0;"/><text fill="#000000" font-family="sans-serif" font-size="14" lengthAdjust="spacing" textLength="37" x="193.5" y="194.4951">HTTP</text><ellipse cx="184.5" cy="207.4453" fill="none" rx="3" ry="3" style="stroke:#038048;stroke-width:1.0;"/><text fill="#000000" font-family="sans-serif" font-size="14" lengthAdjust="spacing" textLength="46" x="193.5" y="210.792">HTTPS</text><line style="stroke:#181818;stroke-width:0.5;" x1="174.5" x2="296.5" y1="218.0938" y2="218.0938"/></g><!--class AuthTypes--><g id="elem_AuthTypes"><rect codeLine="40" fill="#F1F1F1" height="113.1875" id="AuthTypes" rx="2.5" ry="2.5" style="stroke:#181818;stroke-width:0.5;" width="109" x="18" y="442"/><ellipse cx="33" cy="458" fill="#ADD1B2" rx="11" ry="11" style="stroke:#181818;stroke-width:1.0;"/><path d="M35.3438,453.6719 C34.4063,453.2344 33.8125,453.0938 32.9375,453.0938 C30.3125,453.0938 28.3125,455.1719 28.3125,457.8906 L28.3125,459.0156 C28.3125,461.5938 30.4219,463.4844 33.3125,463.4844 C34.5313,463.4844 35.6875,463.1875 36.4375,462.6406 C37.0156,462.2344 37.3438,461.7813 37.3438,461.3906 C37.3438,460.9375 36.9531,460.5469 36.4844,460.5469 C36.2656,460.5469 36.0625,460.625 35.875,460.8125 C35.4219,461.2969 35.4219,461.2969 35.2344,461.3906 C34.8125,461.6563 34.125,461.7813 33.3594,461.7813 C31.3125,461.7813 30.0156,460.6875 30.0156,458.9844 L30.0156,457.8906 C30.0156,456.1094 31.2656,454.7969 33,454.7969 C33.5781,454.7969 34.1875,454.9531 34.6563,455.2031 C35.1406,455.4844 35.3125,455.7031 35.4063,456.1094 C35.4688,456.5156 35.5,456.6406 35.6406,456.7656 C35.7813,456.9063 36.0156,457.0156 36.2344,457.0156 C36.5,457.0156 36.7656,456.875 36.9375,456.6563 C37.0469,456.5 37.0781,456.3125 37.0781,455.8906 L37.0781,454.4688 C37.0781,454.0313 37.0625,453.9063 36.9688,453.75 C36.8125,453.4844 36.5313,453.3438 36.2344,453.3438 C35.9375,453.3438 35.7344,453.4375 35.5156,453.75 L35.3438,453.6719 Z " fill="#000000"/><text fill="#000000" font-family="sans-serif" font-size="14" lengthAdjust="spacing" textLength="77" x="47" y="462.8467">AuthTypes</text><line style="stroke:#181818;stroke-width:0.5;" x1="19" x2="126" y1="474" y2="474"/><ellipse cx="29" cy="487.6484" fill="none" rx="3" ry="3" style="stroke:#038048;stroke-width:1.0;"/><text fill="#000000" font-family="sans-serif" font-size="14" lengthAdjust="spacing" textLength="40" x="38" y="490.9951">NONE</text><ellipse cx="29" cy="503.9453" fill="none" rx="3" ry="3" style="stroke:#038048;stroke-width:1.0;"/><text fill="#000000" font-family="sans-serif" font-size="14" lengthAdjust="spacing" textLength="43" x="38" y="507.292">BASIC</text><ellipse cx="29" cy="520.2422" fill="none" rx="3" ry="3" style="stroke:#038048;stroke-width:1.0;"/><text fill="#000000" font-family="sans-serif" font-size="14" lengthAdjust="spacing" textLength="49" x="38" y="523.5889">OAUTH</text><ellipse cx="29" cy="536.5391" fill="none" rx="3" ry="3" style="stroke:#038048;stroke-width:1.0;"/><text fill="#000000" font-family="sans-serif" font-size="14" lengthAdjust="spacing" textLength="77" x="38" y="539.8857">KEYCLOAK</text><line style="stroke:#181818;stroke-width:0.5;" x1="19" x2="126" y1="547.1875" y2="547.1875"/></g><!--class TyperApp--><g id="elem_TyperApp"><rect codeLine="47" fill="#F1F1F1" height="96.8906" id="TyperApp" rx="2.5" ry="2.5" style="stroke:#181818;stroke-width:0.5;" width="176" x="464.5" y="450"/><ellipse cx="512.25" cy="466" fill="#ADD1B2" rx="11" ry="11" style="stroke:#181818;stroke-width:1.0;"/><path d="M514.5938,461.6719 C513.6563,461.2344 513.0625,461.0938 512.1875,461.0938 C509.5625,461.0938 507.5625,463.1719 507.5625,465.8906 L507.5625,467.0156 C507.5625,469.5938 509.6719,471.4844 512.5625,471.4844 C513.7813,471.4844 514.9375,471.1875 515.6875,470.6406 C516.2656,470.2344 516.5938,469.7813 516.5938,469.3906 C516.5938,468.9375 516.2031,468.5469 515.7344,468.5469 C515.5156,468.5469 515.3125,468.625 515.125,468.8125 C514.6719,469.2969 514.6719,469.2969 514.4844,469.3906 C514.0625,469.6563 513.375,469.7813 512.6094,469.7813 C510.5625,469.7813 509.2656,468.6875 509.2656,466.9844 L509.2656,465.8906 C509.2656,464.1094 510.5156,462.7969 512.25,462.7969 C512.8281,462.7969 513.4375,462.9531 513.9063,463.2031 C514.3906,463.4844 514.5625,463.7031 514.6563,464.1094 C514.7188,464.5156 514.75,464.6406 514.8906,464.7656 C515.0313,464.9063 515.2656,465.0156 515.4844,465.0156 C515.75,465.0156 516.0156,464.875 516.1875,464.6563 C516.2969,464.5 516.3281,464.3125 516.3281,463.8906 L516.3281,462.4688 C516.3281,462.0313 516.3125,461.9063 516.2188,461.75 C516.0625,461.4844 515.7813,461.3438 515.4844,461.3438 C515.1875,461.3438 514.9844,461.4375 514.7656,461.75 L514.5938,461.6719 Z " fill="#000000"/><text fill="#000000" font-family="sans-serif" font-size="14" lengthAdjust="spacing" textLength="72" x="532.75" y="470.8467">TyperApp</text><line style="stroke:#181818;stroke-width:0.5;" x1="465.5" x2="639.5" y1="482" y2="482"/><line style="stroke:#181818;stroke-width:0.5;" x1="465.5" x2="639.5" y1="490" y2="490"/><ellipse cx="475.5" cy="503.6484" fill="#84BE84" rx="3" ry="3" style="stroke:#038048;stroke-width:1.0;"/><text fill="#000000" font-family="sans-serif" font-size="14" lengthAdjust="spacing" textLength="150" x="484.5" y="506.9951">command(name: str)</text><ellipse cx="475.5" cy="519.9453" fill="#84BE84" rx="3" ry="3" style="stroke:#038048;stroke-width:1.0;"/><text fill="#000000" font-family="sans-serif" font-size="14" lengthAdjust="spacing" textLength="149" x="484.5" y="523.292">argument(name: str)</text><ellipse cx="475.5" cy="536.2422" fill="#84BE84" rx="3" ry="3" style="stroke:#038048;stroke-width:1.0;"/><text fill="#000000" font-family="sans-serif" font-size="14" lengthAdjust="spacing" textLength="127" x="484.5" y="539.5889">option(name: str)</text></g><!--link CLI to TyperApp--><g id="link_CLI_TyperApp"><path codeLine="54" d="M552.5,365.37 C552.5,396.455 552.5,426.276 552.5,449.695 " fill="none" id="CLI-TyperApp" style="stroke:#181818;stroke-width:1.0;"/><text fill="#000000" font-family="sans-serif" font-size="13" lengthAdjust="spacing" textLength="55" x="553.5" y="408.0669">Uses &gt;&gt;</text></g><!--SRC=[ZLJBRjim4BphAzXJ5DJn1_WGG7M4neWR1v5yw4cWnOr9X289Fb8OHVuzf4IzdBgj8TYZtTbPxeBZAtG7Bqo0GJN7nY3i7wIXjbWSEIHVI9j5wsrM51qbIQvY3R8qP3Qnz1UpT0p9fi62e1SdQikaC4ad4NA_4-G_Nn4JpARNyGK4Fd2eBDM02HF7b9cgYv4LEaZ9Uw81MzLIr4vh43OMcBJxzHadxCfBspDX4BK-gN2KYyeQWlP8h5xXD9olfb2_JbNwnB6j8KhwdcOMnKfnLkDs_2612HdegS0Dh92nUe6SvaCyXfRB9LfuYAqpiv4uCvTw3j8zg1YPrJf5i8NBl0MQ72gSODnE8z_Wtmt2W9F9fpCQAhMjBkYtG_rnPMUxJ3skpgJEffko_zeq3lMVwc-OirO_V5dMGDg3ohCYzNrYa5ounXlA-u02Lw0xftYpEGC47Kx13j4OzsNvz0CibSGC1lcUbn4zxOe1xdjqbs_pCWyDEudzyxRmrxI1KI6eJc0naZDdQNbI4-xZxZ6Fy5jMRDOHxx9zUH_nG_vplTrb3wDCaD2PKeDAD7xwQNbO7rq3qqlVPwIQNvJv3ZNmxZvGfiA_o0RTt8njLsWVzdbx-m40]--></g></svg>