<?xml version="1.0" encoding="us-ascii" standalone="no"?><svg xmlns="http://www.w3.org/2000/svg" xmlns:xlink="http://www.w3.org/1999/xlink" contentStyleType="text/css" height="610px" preserveAspectRatio="none" style="width:1800px;height:610px;background:#FFFFFF;" version="1.1" viewBox="0 0 1800 610" width="1800px" zoomAndPan="magnify"><defs/><g><!--class ConfigManager--><g id="elem_ConfigManager"><rect codeLine="5" fill="#F1F1F1" height="373.9375" id="ConfigManager" rx="2.5" ry="2.5" style="stroke:#181818;stroke-width:0.5;" width="473" x="612.5" y="7"/><ellipse cx="790.75" cy="23" fill="#ADD1B2" rx="11" ry="11" style="stroke:#181818;stroke-width:1.0;"/><path d="M793.0938,18.6719 C792.1563,18.2344 791.5625,18.0938 790.6875,18.0938 C788.0625,18.0938 786.0625,20.1719 786.0625,22.8906 L786.0625,24.0156 C786.0625,26.5938 788.1719,28.4844 791.0625,28.4844 C792.2813,28.4844 793.4375,28.1875 794.1875,27.6406 C794.7656,27.2344 795.0938,26.7813 795.0938,26.3906 C795.0938,25.9375 794.7031,25.5469 794.2344,25.5469 C794.0156,25.5469 793.8125,25.625 793.625,25.8125 C793.1719,26.2969 793.1719,26.2969 792.9844,26.3906 C792.5625,26.6563 791.875,26.7813 791.1094,26.7813 C789.0625,26.7813 787.7656,25.6875 787.7656,23.9844 L787.7656,22.8906 C787.7656,21.1094 789.0156,19.7969 790.75,19.7969 C791.3281,19.7969 791.9375,19.9531 792.4063,20.2031 C792.8906,20.4844 793.0625,20.7031 793.1563,21.1094 C793.2188,21.5156 793.25,21.6406 793.3906,21.7656 C793.5313,21.9063 793.7656,22.0156 793.9844,22.0156 C794.25,22.0156 794.5156,21.875 794.6875,21.6563 C794.7969,21.5 794.8281,21.3125 794.8281,20.8906 L794.8281,19.4688 C794.8281,19.0313 794.8125,18.9063 794.7188,18.75 C794.5625,18.4844 794.2813,18.3438 793.9844,18.3438 C793.6875,18.3438 793.4844,18.4375 793.2656,18.75 L793.0938,18.6719 Z " fill="#000000"/><text fill="#000000" font-family="sans-serif" font-size="14" lengthAdjust="spacing" textLength="108" x="811.25" y="27.8467">ConfigManager</text><line style="stroke:#181818;stroke-width:0.5;" x1="613.5" x2="1084.5" y1="39" y2="39"/><rect fill="none" height="6" style="stroke:#C82930;stroke-width:1.0;" width="6" x="620.5" y="49.6484"/><text fill="#000000" font-family="sans-serif" font-size="14" lengthAdjust="spacing" textLength="114" x="632.5" y="55.9951">db_paths: tuple</text><rect fill="none" height="6" style="stroke:#C82930;stroke-width:1.0;" width="6" x="620.5" y="65.9453"/><text fill="#000000" font-family="sans-serif" font-size="14" lengthAdjust="spacing" textLength="167" x="632.5" y="72.292">config_file_path: string</text><rect fill="none" height="6" style="stroke:#C82930;stroke-width:1.0;" width="6" x="620.5" y="82.2422"/><text fill="#000000" font-family="sans-serif" font-size="14" lengthAdjust="spacing" textLength="137" x="632.5" y="88.5889">logfile_path: string</text><rect fill="none" height="6" style="stroke:#C82930;stroke-width:1.0;" width="6" x="620.5" y="98.5391"/><text fill="#000000" font-family="sans-serif" font-size="14" lengthAdjust="spacing" textLength="163" x="632.5" y="104.8857">encryption_key: string</text><rect fill="none" height="6" style="stroke:#C82930;stroke-width:1.0;" width="6" x="620.5" y="114.8359"/><text fill="#000000" font-family="sans-serif" font-size="14" lengthAdjust="spacing" textLength="143" x="632.5" y="121.1826">keycloak_config: {}</text><rect fill="none" height="6" style="stroke:#C82930;stroke-width:1.0;" width="6" x="620.5" y="131.1328"/><text fill="#000000" font-family="sans-serif" font-size="14" lengthAdjust="spacing" textLength="149" x="632.5" y="137.4795">threading_config: {}</text><line style="stroke:#181818;stroke-width:0.5;" x1="613.5" x2="1084.5" y1="144.7813" y2="144.7813"/><ellipse cx="623.5" cy="158.4297" fill="#84BE84" rx="3" ry="3" style="stroke:#038048;stroke-width:1.0;"/><text fill="#000000" font-family="sans-serif" font-size="14" lengthAdjust="spacing" textLength="176" x="632.5" y="161.7764">__init__(db_paths: tuple)</text><ellipse cx="623.5" cy="174.7266" fill="#84BE84" rx="3" ry="3" style="stroke:#038048;stroke-width:1.0;"/><text fill="#000000" font-family="sans-serif" font-size="14" lengthAdjust="spacing" textLength="168" x="632.5" y="178.0732">create_config_file(): int</text><ellipse cx="623.5" cy="191.0234" fill="#84BE84" rx="3" ry="3" style="stroke:#038048;stroke-width:1.0;"/><text fill="#000000" font-family="sans-serif" font-size="14" lengthAdjust="spacing" textLength="447" x="632.5" y="194.3701">create_threading_config(enabled: bool, thread_count: int): int</text><ellipse cx="623.5" cy="207.3203" fill="#84BE84" rx="3" ry="3" style="stroke:#038048;stroke-width:1.0;"/><text fill="#000000" font-family="sans-serif" font-size="14" lengthAdjust="spacing" textLength="318" x="632.5" y="210.667">update_threading_config(enabled: bool): int</text><ellipse cx="623.5" cy="223.6172" fill="#84BE84" rx="3" ry="3" style="stroke:#038048;stroke-width:1.0;"/><text fill="#000000" font-family="sans-serif" font-size="14" lengthAdjust="spacing" textLength="290" x="632.5" y="226.9639">set_thread_count(thread_count: int): int</text><ellipse cx="623.5" cy="239.9141" fill="#84BE84" rx="3" ry="3" style="stroke:#038048;stroke-width:1.0;"/><text fill="#000000" font-family="sans-serif" font-size="14" lengthAdjust="spacing" textLength="304" x="632.5" y="243.2607">create_keycloak_config(defaults: dict): int</text><ellipse cx="623.5" cy="256.2109" fill="#84BE84" rx="3" ry="3" style="stroke:#038048;stroke-width:1.0;"/><text fill="#000000" font-family="sans-serif" font-size="14" lengthAdjust="spacing" textLength="195" x="632.5" y="259.5576">get_keycloak_config(): dict</text><ellipse cx="623.5" cy="272.5078" fill="#84BE84" rx="3" ry="3" style="stroke:#038048;stroke-width:1.0;"/><text fill="#000000" font-family="sans-serif" font-size="14" lengthAdjust="spacing" textLength="166" x="632.5" y="275.8545">_create_database(): int</text><ellipse cx="623.5" cy="288.8047" fill="#84BE84" rx="3" ry="3" style="stroke:#038048;stroke-width:1.0;"/><text fill="#000000" font-family="sans-serif" font-size="14" lengthAdjust="spacing" textLength="145" x="632.5" y="292.1514">_create_logfile(): int</text><ellipse cx="623.5" cy="305.1016" fill="#84BE84" rx="3" ry="3" style="stroke:#038048;stroke-width:1.0;"/><text fill="#000000" font-family="sans-serif" font-size="14" lengthAdjust="spacing" textLength="186" x="632.5" y="308.4482">get_log_file_path(): string</text><ellipse cx="623.5" cy="321.3984" fill="#84BE84" rx="3" ry="3" style="stroke:#038048;stroke-width:1.0;"/><text fill="#000000" font-family="sans-serif" font-size="14" lengthAdjust="spacing" textLength="212" x="632.5" y="324.7451">_create_encryption_key(): int</text><ellipse cx="623.5" cy="337.6953" fill="#84BE84" rx="3" ry="3" style="stroke:#038048;stroke-width:1.0;"/><text fill="#000000" font-family="sans-serif" font-size="14" lengthAdjust="spacing" textLength="345" x="632.5" y="341.042">update_encryption_config(is_enabled: bool): int</text><ellipse cx="623.5" cy="353.9922" fill="#84BE84" rx="3" ry="3" style="stroke:#038048;stroke-width:1.0;"/><text fill="#000000" font-family="sans-serif" font-size="14" lengthAdjust="spacing" textLength="196" x="632.5" y="357.3389">reset_encryption_key(): int</text><ellipse cx="623.5" cy="370.2891" fill="#84BE84" rx="3" ry="3" style="stroke:#038048;stroke-width:1.0;"/><text fill="#000000" font-family="sans-serif" font-size="14" lengthAdjust="spacing" textLength="191" x="632.5" y="373.6357">get_threading_config(): {}</text></g><!--class DatabaseConfig--><g id="elem_DatabaseConfig"><rect codeLine="30" fill="#F1F1F1" height="113.1875" id="DatabaseConfig" rx="2.5" ry="2.5" style="stroke:#181818;stroke-width:0.5;" width="348" x="7" y="474.5"/><ellipse cx="119.25" cy="490.5" fill="#ADD1B2" rx="11" ry="11" style="stroke:#181818;stroke-width:1.0;"/><path d="M121.5938,486.1719 C120.6563,485.7344 120.0625,485.5938 119.1875,485.5938 C116.5625,485.5938 114.5625,487.6719 114.5625,490.3906 L114.5625,491.5156 C114.5625,494.0938 116.6719,495.9844 119.5625,495.9844 C120.7813,495.9844 121.9375,495.6875 122.6875,495.1406 C123.2656,494.7344 123.5938,494.2813 123.5938,493.8906 C123.5938,493.4375 123.2031,493.0469 122.7344,493.0469 C122.5156,493.0469 122.3125,493.125 122.125,493.3125 C121.6719,493.7969 121.6719,493.7969 121.4844,493.8906 C121.0625,494.1563 120.375,494.2813 119.6094,494.2813 C117.5625,494.2813 116.2656,493.1875 116.2656,491.4844 L116.2656,490.3906 C116.2656,488.6094 117.5156,487.2969 119.25,487.2969 C119.8281,487.2969 120.4375,487.4531 120.9063,487.7031 C121.3906,487.9844 121.5625,488.2031 121.6563,488.6094 C121.7188,489.0156 121.75,489.1406 121.8906,489.2656 C122.0313,489.4063 122.2656,489.5156 122.4844,489.5156 C122.75,489.5156 123.0156,489.375 123.1875,489.1563 C123.2969,489 123.3281,488.8125 123.3281,488.3906 L123.3281,486.9688 C123.3281,486.5313 123.3125,486.4063 123.2188,486.25 C123.0625,485.9844 122.7813,485.8438 122.4844,485.8438 C122.1875,485.8438 121.9844,485.9375 121.7656,486.25 L121.5938,486.1719 Z " fill="#000000"/><text fill="#000000" font-family="sans-serif" font-size="14" lengthAdjust="spacing" textLength="115" x="139.75" y="495.3467">DatabaseConfig</text><line style="stroke:#181818;stroke-width:0.5;" x1="8" x2="354" y1="506.5" y2="506.5"/><rect fill="none" height="6" style="stroke:#C82930;stroke-width:1.0;" width="6" x="15" y="517.1484"/><text fill="#000000" font-family="sans-serif" font-size="14" lengthAdjust="spacing" textLength="100" x="27" y="523.4951">databases: {}</text><line style="stroke:#181818;stroke-width:0.5;" x1="8" x2="354" y1="530.7969" y2="530.7969"/><ellipse cx="18" cy="544.4453" fill="#84BE84" rx="3" ry="3" style="stroke:#038048;stroke-width:1.0;"/><text fill="#000000" font-family="sans-serif" font-size="14" lengthAdjust="spacing" textLength="322" x="27" y="547.792">add_database(name: string, path: string): int</text><ellipse cx="18" cy="560.7422" fill="#84BE84" rx="3" ry="3" style="stroke:#038048;stroke-width:1.0;"/><text fill="#000000" font-family="sans-serif" font-size="14" lengthAdjust="spacing" textLength="291" x="27" y="564.0889">get_database_path(name: string): string</text><ellipse cx="18" cy="577.0391" fill="#84BE84" rx="3" ry="3" style="stroke:#038048;stroke-width:1.0;"/><text fill="#000000" font-family="sans-serif" font-size="14" lengthAdjust="spacing" textLength="180" x="27" y="580.3857">initialize_databases(): int</text></g><!--class LoggerConfig--><g id="elem_LoggerConfig"><rect codeLine="38" fill="#F1F1F1" height="96.8906" id="LoggerConfig" rx="2.5" ry="2.5" style="stroke:#181818;stroke-width:0.5;" width="288" x="390" y="482.5"/><ellipse cx="481.25" cy="498.5" fill="#ADD1B2" rx="11" ry="11" style="stroke:#181818;stroke-width:1.0;"/><path d="M483.5938,494.1719 C482.6563,493.7344 482.0625,493.5938 481.1875,493.5938 C478.5625,493.5938 476.5625,495.6719 476.5625,498.3906 L476.5625,499.5156 C476.5625,502.0938 478.6719,503.9844 481.5625,503.9844 C482.7813,503.9844 483.9375,503.6875 484.6875,503.1406 C485.2656,502.7344 485.5938,502.2813 485.5938,501.8906 C485.5938,501.4375 485.2031,501.0469 484.7344,501.0469 C484.5156,501.0469 484.3125,501.125 484.125,501.3125 C483.6719,501.7969 483.6719,501.7969 483.4844,501.8906 C483.0625,502.1563 482.375,502.2813 481.6094,502.2813 C479.5625,502.2813 478.2656,501.1875 478.2656,499.4844 L478.2656,498.3906 C478.2656,496.6094 479.5156,495.2969 481.25,495.2969 C481.8281,495.2969 482.4375,495.4531 482.9063,495.7031 C483.3906,495.9844 483.5625,496.2031 483.6563,496.6094 C483.7188,497.0156 483.75,497.1406 483.8906,497.2656 C484.0313,497.4063 484.2656,497.5156 484.4844,497.5156 C484.75,497.5156 485.0156,497.375 485.1875,497.1563 C485.2969,497 485.3281,496.8125 485.3281,496.3906 L485.3281,494.9688 C485.3281,494.5313 485.3125,494.4063 485.2188,494.25 C485.0625,493.9844 484.7813,493.8438 484.4844,493.8438 C484.1875,493.8438 483.9844,493.9375 483.7656,494.25 L483.5938,494.1719 Z " fill="#000000"/><text fill="#000000" font-family="sans-serif" font-size="14" lengthAdjust="spacing" textLength="97" x="501.75" y="503.3467">LoggerConfig</text><line style="stroke:#181818;stroke-width:0.5;" x1="391" x2="677" y1="514.5" y2="514.5"/><rect fill="none" height="6" style="stroke:#C82930;stroke-width:1.0;" width="6" x="398" y="525.1484"/><text fill="#000000" font-family="sans-serif" font-size="14" lengthAdjust="spacing" textLength="137" x="410" y="531.4951">logfile_path: string</text><line style="stroke:#181818;stroke-width:0.5;" x1="391" x2="677" y1="538.7969" y2="538.7969"/><ellipse cx="401" cy="552.4453" fill="#84BE84" rx="3" ry="3" style="stroke:#038048;stroke-width:1.0;"/><text fill="#000000" font-family="sans-serif" font-size="14" lengthAdjust="spacing" textLength="262" x="410" y="555.792">configure_logging(level: string): void</text><ellipse cx="401" cy="568.7422" fill="#84BE84" rx="3" ry="3" style="stroke:#038048;stroke-width:1.0;"/><text fill="#000000" font-family="sans-serif" font-size="14" lengthAdjust="spacing" textLength="186" x="410" y="572.0889">get_log_file_path(): string</text></g><!--class EncryptionConfig--><g id="elem_EncryptionConfig"><rect codeLine="45" fill="#F1F1F1" height="145.7813" id="EncryptionConfig" rx="2.5" ry="2.5" style="stroke:#181818;stroke-width:0.5;" width="272" x="713" y="458"/><ellipse cx="781.75" cy="474" fill="#ADD1B2" rx="11" ry="11" style="stroke:#181818;stroke-width:1.0;"/><path d="M784.0938,469.6719 C783.1563,469.2344 782.5625,469.0938 781.6875,469.0938 C779.0625,469.0938 777.0625,471.1719 777.0625,473.8906 L777.0625,475.0156 C777.0625,477.5938 779.1719,479.4844 782.0625,479.4844 C783.2813,479.4844 784.4375,479.1875 785.1875,478.6406 C785.7656,478.2344 786.0938,477.7813 786.0938,477.3906 C786.0938,476.9375 785.7031,476.5469 785.2344,476.5469 C785.0156,476.5469 784.8125,476.625 784.625,476.8125 C784.1719,477.2969 784.1719,477.2969 783.9844,477.3906 C783.5625,477.6563 782.875,477.7813 782.1094,477.7813 C780.0625,477.7813 778.7656,476.6875 778.7656,474.9844 L778.7656,473.8906 C778.7656,472.1094 780.0156,470.7969 781.75,470.7969 C782.3281,470.7969 782.9375,470.9531 783.4063,471.2031 C783.8906,471.4844 784.0625,471.7031 784.1563,472.1094 C784.2188,472.5156 784.25,472.6406 784.3906,472.7656 C784.5313,472.9063 784.7656,473.0156 784.9844,473.0156 C785.25,473.0156 785.5156,472.875 785.6875,472.6563 C785.7969,472.5 785.8281,472.3125 785.8281,471.8906 L785.8281,470.4688 C785.8281,470.0313 785.8125,469.9063 785.7188,469.75 C785.5625,469.4844 785.2813,469.3438 784.9844,469.3438 C784.6875,469.3438 784.4844,469.4375 784.2656,469.75 L784.0938,469.6719 Z " fill="#000000"/><text fill="#000000" font-family="sans-serif" font-size="14" lengthAdjust="spacing" textLength="126" x="802.25" y="478.8467">EncryptionConfig</text><line style="stroke:#181818;stroke-width:0.5;" x1="714" x2="984" y1="490" y2="490"/><rect fill="none" height="6" style="stroke:#C82930;stroke-width:1.0;" width="6" x="721" y="500.6484"/><text fill="#000000" font-family="sans-serif" font-size="14" lengthAdjust="spacing" textLength="163" x="733" y="506.9951">encryption_key: string</text><line style="stroke:#181818;stroke-width:0.5;" x1="714" x2="984" y1="514.2969" y2="514.2969"/><ellipse cx="724" cy="527.9453" fill="#84BE84" rx="3" ry="3" style="stroke:#038048;stroke-width:1.0;"/><text fill="#000000" font-family="sans-serif" font-size="14" lengthAdjust="spacing" textLength="184" x="733" y="531.292">enable_encryption(): void</text><ellipse cx="724" cy="544.2422" fill="#84BE84" rx="3" ry="3" style="stroke:#038048;stroke-width:1.0;"/><text fill="#000000" font-family="sans-serif" font-size="14" lengthAdjust="spacing" textLength="186" x="733" y="547.5889">disable_encryption(): void</text><ellipse cx="724" cy="560.5391" fill="#84BE84" rx="3" ry="3" style="stroke:#038048;stroke-width:1.0;"/><text fill="#000000" font-family="sans-serif" font-size="14" lengthAdjust="spacing" textLength="213" x="733" y="563.8857">get_encryption_status(): bool</text><ellipse cx="724" cy="576.8359" fill="#84BE84" rx="3" ry="3" style="stroke:#038048;stroke-width:1.0;"/><text fill="#000000" font-family="sans-serif" font-size="14" lengthAdjust="spacing" textLength="246" x="733" y="580.1826">generate_encryption_key(): string</text><ellipse cx="724" cy="593.1328" fill="#84BE84" rx="3" ry="3" style="stroke:#038048;stroke-width:1.0;"/><text fill="#000000" font-family="sans-serif" font-size="14" lengthAdjust="spacing" textLength="205" x="733" y="596.4795">get_encryption_key(): string</text></g><!--class KeycloakConfig--><g id="elem_KeycloakConfig"><rect codeLine="55" fill="#F1F1F1" height="96.8906" id="KeycloakConfig" rx="2.5" ry="2.5" style="stroke:#181818;stroke-width:0.5;" width="331" x="1020.5" y="482.5"/><ellipse cx="1125.75" cy="498.5" fill="#ADD1B2" rx="11" ry="11" style="stroke:#181818;stroke-width:1.0;"/><path d="M1128.0938,494.1719 C1127.1563,493.7344 1126.5625,493.5938 1125.6875,493.5938 C1123.0625,493.5938 1121.0625,495.6719 1121.0625,498.3906 L1121.0625,499.5156 C1121.0625,502.0938 1123.1719,503.9844 1126.0625,503.9844 C1127.2813,503.9844 1128.4375,503.6875 1129.1875,503.1406 C1129.7656,502.7344 1130.0938,502.2813 1130.0938,501.8906 C1130.0938,501.4375 1129.7031,501.0469 1129.2344,501.0469 C1129.0156,501.0469 1128.8125,501.125 1128.625,501.3125 C1128.1719,501.7969 1128.1719,501.7969 1127.9844,501.8906 C1127.5625,502.1563 1126.875,502.2813 1126.1094,502.2813 C1124.0625,502.2813 1122.7656,501.1875 1122.7656,499.4844 L1122.7656,498.3906 C1122.7656,496.6094 1124.0156,495.2969 1125.75,495.2969 C1126.3281,495.2969 1126.9375,495.4531 1127.4063,495.7031 C1127.8906,495.9844 1128.0625,496.2031 1128.1563,496.6094 C1128.2188,497.0156 1128.25,497.1406 1128.3906,497.2656 C1128.5313,497.4063 1128.7656,497.5156 1128.9844,497.5156 C1129.25,497.5156 1129.5156,497.375 1129.6875,497.1563 C1129.7969,497 1129.8281,496.8125 1129.8281,496.3906 L1129.8281,494.9688 C1129.8281,494.5313 1129.8125,494.4063 1129.7188,494.25 C1129.5625,493.9844 1129.2813,493.8438 1128.9844,493.8438 C1128.6875,493.8438 1128.4844,493.9375 1128.2656,494.25 L1128.0938,494.1719 Z " fill="#000000"/><text fill="#000000" font-family="sans-serif" font-size="14" lengthAdjust="spacing" textLength="112" x="1146.25" y="503.3467">KeycloakConfig</text><line style="stroke:#181818;stroke-width:0.5;" x1="1021.5" x2="1350.5" y1="514.5" y2="514.5"/><rect fill="none" height="6" style="stroke:#C82930;stroke-width:1.0;" width="6" x="1028.5" y="525.1484"/><text fill="#000000" font-family="sans-serif" font-size="14" lengthAdjust="spacing" textLength="146" x="1040.5" y="531.4951">keycloak_details: {}</text><line style="stroke:#181818;stroke-width:0.5;" x1="1021.5" x2="1350.5" y1="538.7969" y2="538.7969"/><ellipse cx="1031.5" cy="552.4453" fill="#84BE84" rx="3" ry="3" style="stroke:#038048;stroke-width:1.0;"/><text fill="#000000" font-family="sans-serif" font-size="14" lengthAdjust="spacing" textLength="305" x="1040.5" y="555.792">set_keycloak_settings(settings: dict): void</text><ellipse cx="1031.5" cy="568.7422" fill="#84BE84" rx="3" ry="3" style="stroke:#038048;stroke-width:1.0;"/><text fill="#000000" font-family="sans-serif" font-size="14" lengthAdjust="spacing" textLength="209" x="1040.5" y="572.0889">get_keycloak_settings(): dict</text></g><!--class ThreadingConfig--><g id="elem_ThreadingConfig"><rect codeLine="62" fill="#F1F1F1" height="113.1875" id="ThreadingConfig" rx="2.5" ry="2.5" style="stroke:#181818;stroke-width:0.5;" width="407" x="1386.5" y="474.5"/><ellipse cx="1526.25" cy="490.5" fill="#ADD1B2" rx="11" ry="11" style="stroke:#181818;stroke-width:1.0;"/><path d="M1528.5938,486.1719 C1527.6563,485.7344 1527.0625,485.5938 1526.1875,485.5938 C1523.5625,485.5938 1521.5625,487.6719 1521.5625,490.3906 L1521.5625,491.5156 C1521.5625,494.0938 1523.6719,495.9844 1526.5625,495.9844 C1527.7813,495.9844 1528.9375,495.6875 1529.6875,495.1406 C1530.2656,494.7344 1530.5938,494.2813 1530.5938,493.8906 C1530.5938,493.4375 1530.2031,493.0469 1529.7344,493.0469 C1529.5156,493.0469 1529.3125,493.125 1529.125,493.3125 C1528.6719,493.7969 1528.6719,493.7969 1528.4844,493.8906 C1528.0625,494.1563 1527.375,494.2813 1526.6094,494.2813 C1524.5625,494.2813 1523.2656,493.1875 1523.2656,491.4844 L1523.2656,490.3906 C1523.2656,488.6094 1524.5156,487.2969 1526.25,487.2969 C1526.8281,487.2969 1527.4375,487.4531 1527.9063,487.7031 C1528.3906,487.9844 1528.5625,488.2031 1528.6563,488.6094 C1528.7188,489.0156 1528.75,489.1406 1528.8906,489.2656 C1529.0313,489.4063 1529.2656,489.5156 1529.4844,489.5156 C1529.75,489.5156 1530.0156,489.375 1530.1875,489.1563 C1530.2969,489 1530.3281,488.8125 1530.3281,488.3906 L1530.3281,486.9688 C1530.3281,486.5313 1530.3125,486.4063 1530.2188,486.25 C1530.0625,485.9844 1529.7813,485.8438 1529.4844,485.8438 C1529.1875,485.8438 1528.9844,485.9375 1528.7656,486.25 L1528.5938,486.1719 Z " fill="#000000"/><text fill="#000000" font-family="sans-serif" font-size="14" lengthAdjust="spacing" textLength="119" x="1546.75" y="495.3467">ThreadingConfig</text><line style="stroke:#181818;stroke-width:0.5;" x1="1387.5" x2="1792.5" y1="506.5" y2="506.5"/><rect fill="none" height="6" style="stroke:#C82930;stroke-width:1.0;" width="6" x="1394.5" y="517.1484"/><text fill="#000000" font-family="sans-serif" font-size="14" lengthAdjust="spacing" textLength="99" x="1406.5" y="523.4951">enabled: bool</text><rect fill="none" height="6" style="stroke:#C82930;stroke-width:1.0;" width="6" x="1394.5" y="533.4453"/><text fill="#000000" font-family="sans-serif" font-size="14" lengthAdjust="spacing" textLength="125" x="1406.5" y="539.792">thread_count: int</text><line style="stroke:#181818;stroke-width:0.5;" x1="1387.5" x2="1792.5" y1="547.0938" y2="547.0938"/><ellipse cx="1397.5" cy="560.7422" fill="#84BE84" rx="3" ry="3" style="stroke:#038048;stroke-width:1.0;"/><text fill="#000000" font-family="sans-serif" font-size="14" lengthAdjust="spacing" textLength="381" x="1406.5" y="564.0889">set_threading(enabled: bool, thread_count: int): void</text><ellipse cx="1397.5" cy="577.0391" fill="#84BE84" rx="3" ry="3" style="stroke:#038048;stroke-width:1.0;"/><text fill="#000000" font-family="sans-serif" font-size="14" lengthAdjust="spacing" textLength="205" x="1406.5" y="580.3857">get_threading_settings(): {}</text></g><!--reverse link ConfigManager to DatabaseConfig--><g id="link_ConfigManager_DatabaseConfig"><path codeLine="70" d="M601.3513,319.1954 C492.3663,373.8504 379.007,430.7 292.04,474.314 " fill="none" id="ConfigManager-backto-DatabaseConfig" style="stroke:#181818;stroke-width:1.0;"/><polygon fill="#181818" points="612.078,313.816,604.9215,312.9301,601.3513,319.1954,608.5078,320.0813,612.078,313.816" style="stroke:#181818;stroke-width:1.0;"/><text fill="#000000" font-family="sans-serif" font-size="13" lengthAdjust="spacing" textLength="78" x="418" y="424.0669">contains &gt;&gt;</text><text fill="#000000" font-family="sans-serif" font-size="13" lengthAdjust="spacing" textLength="8" x="596.1727" y="314.5715">1</text><text fill="#000000" font-family="sans-serif" font-size="13" lengthAdjust="spacing" textLength="8" x="297.0855" y="463.5549">1</text></g><!--reverse link ConfigManager to LoggerConfig--><g id="link_ConfigManager_LoggerConfig"><path codeLine="71" d="M665.7777,389.8553 C630.5167,427.3553 604.662,454.852 578.958,482.188 " fill="none" id="ConfigManager-backto-LoggerConfig" style="stroke:#181818;stroke-width:1.0;"/><polygon fill="#181818" points="673.998,381.113,666.9738,382.744,665.7777,389.8553,672.8019,388.2242,673.998,381.113" style="stroke:#181818;stroke-width:1.0;"/><text fill="#000000" font-family="sans-serif" font-size="13" lengthAdjust="spacing" textLength="78" x="646" y="424.0669">contains &gt;&gt;</text><text fill="#000000" font-family="sans-serif" font-size="13" lengthAdjust="spacing" textLength="8" x="659.0057" y="400.7858">1</text><text fill="#000000" font-family="sans-serif" font-size="13" lengthAdjust="spacing" textLength="8" x="576.7177" y="471.353">1</text></g><!--reverse link ConfigManager to EncryptionConfig--><g id="link_ConfigManager_EncryptionConfig"><path codeLine="72" d="M849,393.113 C849,420.372 849,434.965 849,457.956 " fill="none" id="ConfigManager-backto-EncryptionConfig" style="stroke:#181818;stroke-width:1.0;"/><polygon fill="#181818" points="849,381.113,845,387.113,849,393.113,853,387.113,849,381.113" style="stroke:#181818;stroke-width:1.0;"/><text fill="#000000" font-family="sans-serif" font-size="13" lengthAdjust="spacing" textLength="78" x="850" y="424.0669">contains &gt;&gt;</text><text fill="#000000" font-family="sans-serif" font-size="13" lengthAdjust="spacing" textLength="8" x="840.8438" y="400.7858">1</text><text fill="#000000" font-family="sans-serif" font-size="13" lengthAdjust="spacing" textLength="8" x="840.5875" y="446.7349">1</text></g><!--reverse link ConfigManager to KeycloakConfig--><g id="link_ConfigManager_KeycloakConfig"><path codeLine="73" d="M1044.7312,389.5723 C1082.4612,427.0723 1110.4,454.852 1137.9,482.188 " fill="none" id="ConfigManager-backto-KeycloakConfig" style="stroke:#181818;stroke-width:1.0;"/><polygon fill="#181818" points="1036.22,381.113,1037.6558,388.1797,1044.7312,389.5723,1043.2954,382.5056,1036.22,381.113" style="stroke:#181818;stroke-width:1.0;"/><text fill="#000000" font-family="sans-serif" font-size="13" lengthAdjust="spacing" textLength="78" x="1078" y="424.0669">contains &gt;&gt;</text><text fill="#000000" font-family="sans-serif" font-size="13" lengthAdjust="spacing" textLength="8" x="1035.377" y="400.7858">1</text><text fill="#000000" font-family="sans-serif" font-size="13" lengthAdjust="spacing" textLength="8" x="1122.5734" y="471.353">1</text></g><!--reverse link ConfigManager to ThreadingConfig--><g id="link_ConfigManager_ThreadingConfig"><path codeLine="74" d="M1096.6845,306.9753 C1223.5245,364.3173 1363.58,427.636 1467.06,474.422 " fill="none" id="ConfigManager-backto-ThreadingConfig" style="stroke:#181818;stroke-width:1.0;"/><polygon fill="#181818" points="1085.75,302.032,1089.5695,308.1485,1096.6845,306.9753,1092.865,300.8588,1085.75,302.032" style="stroke:#181818;stroke-width:1.0;"/><text fill="#000000" font-family="sans-serif" font-size="13" lengthAdjust="spacing" textLength="78" x="1352" y="424.0669">contains &gt;&gt;</text><text fill="#000000" font-family="sans-serif" font-size="13" lengthAdjust="spacing" textLength="8" x="1093.6496" y="302.4008">1</text><text fill="#000000" font-family="sans-serif" font-size="13" lengthAdjust="spacing" textLength="8" x="1442.7958" y="463.2754">1</text></g><!--SRC=[ZLNBRjim4BpxAxQvHAxZGwyw12YIdfgUqZj1Ysk924C98XKWDVBlfIHI8bT-o0ZiGBEpv3vcT0_FU9GQ3HIA6mFS_K6BXUMwLBZv9WOKdbv-lhwE8PlDlUU0hHnIwwCi_t3DIsnzn1YT8gSDkCyUn84rt5Oc1zirxeJnQJ74igDKEC0v6DjANNfOrUKb27NHVZPMrfgzuIS1tPD2rVoDZVbpE7rvn5OjSk4YAJHyxO0ngQLbB2FttNgyS7IBBBftjir1QflYz9WCDJye53aSwbez-6iuiDDse2T9kaRSJf8m35eMvyok7-1lITgKkQ7pJbbNiv15oYZT0JHyEyQ5plcaxkhym0tfIq3zHBD5SWVCQz33qK1dUZhrx5pNeX1_JsdOvSwrsFVkMjvowcqqYksmE5z45C- -zb42NbgsujOjUgS4710wWm9i3U-3FY1qQsyQBEHH5buINSlxsmHDaSIJgFnZCwtn3hWGymmqVyVGoWU8PRGeCN360SH4EenU8P8h-MyUjWajenrvgKld0Ylw4Sh6NlHbVzXOUPBWTCiNTdCUvlDa2ZzGHRLyr5AiM3nQoQzfHP9gZdKxpj9n8bFQjwZSDefUcTP1OP2BBAVRVhQ3SNsZBStIEeGqrmFATCUDvRORPjRhOOhHs9uNMNAPygnUBdJjj_UCHSy2C2y-wHHXdgYr2xHSgdZpJUnH8LiM_fbCZRHboGY-Hclv6qnWKSna3xG8Ifcd7VbHycgAB7lXxVqshtYHa09dxueh9Eurh6jlE9LitEMJL_ZTZpluljyFlyI8ybvlRWxQmEFZ5LgYuhMaXLRM4idghANHOIMy_m00]--></g></svg>