<?xml version="1.0" encoding="us-ascii" standalone="no"?><svg xmlns="http://www.w3.org/2000/svg" xmlns:xlink="http://www.w3.org/1999/xlink" contentStyleType="text/css" height="605px" preserveAspectRatio="none" style="width:357px;height:605px;background:#FFFFFF;" version="1.1" viewBox="0 0 357 605" width="357px" zoomAndPan="magnify"><defs/><g><!--class Database--><g id="elem_Database"><rect codeLine="5" fill="#F1F1F1" height="194.6719" id="Database" rx="2.5" ry="2.5" style="stroke:#181818;stroke-width:0.5;" width="343" x="7" y="213"/><ellipse cx="140.25" cy="229" fill="#ADD1B2" rx="11" ry="11" style="stroke:#181818;stroke-width:1.0;"/><path d="M142.5938,224.6719 C141.6563,224.2344 141.0625,224.0938 140.1875,224.0938 C137.5625,224.0938 135.5625,226.1719 135.5625,228.8906 L135.5625,230.0156 C135.5625,232.5938 137.6719,234.4844 140.5625,234.4844 C141.7813,234.4844 142.9375,234.1875 143.6875,233.6406 C144.2656,233.2344 144.5938,232.7813 144.5938,232.3906 C144.5938,231.9375 144.2031,231.5469 143.7344,231.5469 C143.5156,231.5469 143.3125,231.625 143.125,231.8125 C142.6719,232.2969 142.6719,232.2969 142.4844,232.3906 C142.0625,232.6563 141.375,232.7813 140.6094,232.7813 C138.5625,232.7813 137.2656,231.6875 137.2656,229.9844 L137.2656,228.8906 C137.2656,227.1094 138.5156,225.7969 140.25,225.7969 C140.8281,225.7969 141.4375,225.9531 141.9063,226.2031 C142.3906,226.4844 142.5625,226.7031 142.6563,227.1094 C142.7188,227.5156 142.75,227.6406 142.8906,227.7656 C143.0313,227.9063 143.2656,228.0156 143.4844,228.0156 C143.75,228.0156 144.0156,227.875 144.1875,227.6563 C144.2969,227.5 144.3281,227.3125 144.3281,226.8906 L144.3281,225.4688 C144.3281,225.0313 144.3125,224.9063 144.2188,224.75 C144.0625,224.4844 143.7813,224.3438 143.4844,224.3438 C143.1875,224.3438 142.9844,224.4375 142.7656,224.75 L142.5938,224.6719 Z " fill="#000000"/><text fill="#000000" font-family="sans-serif" font-size="14" lengthAdjust="spacing" textLength="68" x="160.75" y="233.8467">Database</text><line style="stroke:#181818;stroke-width:0.5;" x1="8" x2="349" y1="245" y2="245"/><rect fill="none" height="6" style="stroke:#C82930;stroke-width:1.0;" width="6" x="15" y="255.6484"/><text fill="#000000" font-family="sans-serif" font-size="14" lengthAdjust="spacing" textLength="85" x="27" y="261.9951">path: string</text><line style="stroke:#181818;stroke-width:0.5;" x1="8" x2="349" y1="269.2969" y2="269.2969"/><ellipse cx="18" cy="282.9453" fill="#84BE84" rx="3" ry="3" style="stroke:#038048;stroke-width:1.0;"/><text fill="#000000" font-family="sans-serif" font-size="14" lengthAdjust="spacing" textLength="199" x="27" y="286.292">__init__(config_path: string)</text><ellipse cx="18" cy="299.2422" fill="#84BE84" rx="3" ry="3" style="stroke:#038048;stroke-width:1.0;"/><text fill="#000000" font-family="sans-serif" font-size="14" lengthAdjust="spacing" textLength="130" x="27" y="302.5889">create_database()</text><ellipse cx="18" cy="315.5391" fill="#84BE84" rx="3" ry="3" style="stroke:#038048;stroke-width:1.0;"/><text fill="#000000" font-family="sans-serif" font-size="14" lengthAdjust="spacing" textLength="200" x="27" y="318.8857">get_database_path(): string</text><ellipse cx="18" cy="331.8359" fill="#84BE84" rx="3" ry="3" style="stroke:#038048;stroke-width:1.0;"/><text fill="#000000" font-family="sans-serif" font-size="14" lengthAdjust="spacing" textLength="160" x="27" y="335.1826">insert_data(data: dict)</text><ellipse cx="18" cy="348.1328" fill="#84BE84" rx="3" ry="3" style="stroke:#038048;stroke-width:1.0;"/><text fill="#000000" font-family="sans-serif" font-size="14" lengthAdjust="spacing" textLength="182" x="27" y="351.4795">get_data(query: dict): list</text><ellipse cx="18" cy="364.4297" fill="#84BE84" rx="3" ry="3" style="stroke:#038048;stroke-width:1.0;"/><text fill="#000000" font-family="sans-serif" font-size="14" lengthAdjust="spacing" textLength="317" x="27" y="367.7764">update_data(identifier: dict, new_data: dict)</text><ellipse cx="18" cy="380.7266" fill="#84BE84" rx="3" ry="3" style="stroke:#038048;stroke-width:1.0;"/><text fill="#000000" font-family="sans-serif" font-size="14" lengthAdjust="spacing" textLength="200" x="27" y="384.0732">delete_data(identifier: dict)</text><ellipse cx="18" cy="397.0234" fill="#84BE84" rx="3" ry="3" style="stroke:#038048;stroke-width:1.0;"/><text fill="#000000" font-family="sans-serif" font-size="14" lengthAdjust="spacing" textLength="125" x="27" y="400.3701">purge_database()</text></g><!--class Config--><g id="elem_Config"><rect codeLine="18" fill="#F1F1F1" height="113.1875" id="Config" rx="2.5" ry="2.5" style="stroke:#181818;stroke-width:0.5;" width="244" x="56.5" y="485"/><ellipse cx="150.75" cy="501" fill="#ADD1B2" rx="11" ry="11" style="stroke:#181818;stroke-width:1.0;"/><path d="M153.0938,496.6719 C152.1563,496.2344 151.5625,496.0938 150.6875,496.0938 C148.0625,496.0938 146.0625,498.1719 146.0625,500.8906 L146.0625,502.0156 C146.0625,504.5938 148.1719,506.4844 151.0625,506.4844 C152.2813,506.4844 153.4375,506.1875 154.1875,505.6406 C154.7656,505.2344 155.0938,504.7813 155.0938,504.3906 C155.0938,503.9375 154.7031,503.5469 154.2344,503.5469 C154.0156,503.5469 153.8125,503.625 153.625,503.8125 C153.1719,504.2969 153.1719,504.2969 152.9844,504.3906 C152.5625,504.6563 151.875,504.7813 151.1094,504.7813 C149.0625,504.7813 147.7656,503.6875 147.7656,501.9844 L147.7656,500.8906 C147.7656,499.1094 149.0156,497.7969 150.75,497.7969 C151.3281,497.7969 151.9375,497.9531 152.4063,498.2031 C152.8906,498.4844 153.0625,498.7031 153.1563,499.1094 C153.2188,499.5156 153.25,499.6406 153.3906,499.7656 C153.5313,499.9063 153.7656,500.0156 153.9844,500.0156 C154.25,500.0156 154.5156,499.875 154.6875,499.6563 C154.7969,499.5 154.8281,499.3125 154.8281,498.8906 L154.8281,497.4688 C154.8281,497.0313 154.8125,496.9063 154.7188,496.75 C154.5625,496.4844 154.2813,496.3438 153.9844,496.3438 C153.6875,496.3438 153.4844,496.4375 153.2656,496.75 L153.0938,496.6719 Z " fill="#000000"/><text fill="#000000" font-family="sans-serif" font-size="14" lengthAdjust="spacing" textLength="47" x="171.25" y="505.8467">Config</text><line style="stroke:#181818;stroke-width:0.5;" x1="57.5" x2="299.5" y1="517" y2="517"/><rect fill="none" height="6" style="stroke:#C82930;stroke-width:1.0;" width="6" x="64.5" y="527.6484"/><text fill="#000000" font-family="sans-serif" font-size="14" lengthAdjust="spacing" textLength="114" x="76.5" y="533.9951">db_paths: tuple</text><line style="stroke:#181818;stroke-width:0.5;" x1="57.5" x2="299.5" y1="541.2969" y2="541.2969"/><ellipse cx="67.5" cy="554.9453" fill="#84BE84" rx="3" ry="3" style="stroke:#038048;stroke-width:1.0;"/><text fill="#000000" font-family="sans-serif" font-size="14" lengthAdjust="spacing" textLength="176" x="76.5" y="558.292">__init__(db_paths: tuple)</text><ellipse cx="67.5" cy="571.2422" fill="#84BE84" rx="3" ry="3" style="stroke:#038048;stroke-width:1.0;"/><text fill="#000000" font-family="sans-serif" font-size="14" lengthAdjust="spacing" textLength="218" x="76.5" y="574.5889">get_path(name: string): string</text><ellipse cx="67.5" cy="587.5391" fill="#84BE84" rx="3" ry="3" style="stroke:#038048;stroke-width:1.0;"/><text fill="#000000" font-family="sans-serif" font-size="14" lengthAdjust="spacing" textLength="119" x="76.5" y="590.8857">initialize_paths()</text></g><!--class DatabaseResponse--><g id="elem_DatabaseResponse"><rect codeLine="25" fill="#F1F1F1" height="129.4844" id="DatabaseResponse" rx="2.5" ry="2.5" style="stroke:#181818;stroke-width:0.5;" width="286" x="35.5" y="7"/><ellipse cx="105.25" cy="23" fill="#ADD1B2" rx="11" ry="11" style="stroke:#181818;stroke-width:1.0;"/><path d="M107.5938,18.6719 C106.6563,18.2344 106.0625,18.0938 105.1875,18.0938 C102.5625,18.0938 100.5625,20.1719 100.5625,22.8906 L100.5625,24.0156 C100.5625,26.5938 102.6719,28.4844 105.5625,28.4844 C106.7813,28.4844 107.9375,28.1875 108.6875,27.6406 C109.2656,27.2344 109.5938,26.7813 109.5938,26.3906 C109.5938,25.9375 109.2031,25.5469 108.7344,25.5469 C108.5156,25.5469 108.3125,25.625 108.125,25.8125 C107.6719,26.2969 107.6719,26.2969 107.4844,26.3906 C107.0625,26.6563 106.375,26.7813 105.6094,26.7813 C103.5625,26.7813 102.2656,25.6875 102.2656,23.9844 L102.2656,22.8906 C102.2656,21.1094 103.5156,19.7969 105.25,19.7969 C105.8281,19.7969 106.4375,19.9531 106.9063,20.2031 C107.3906,20.4844 107.5625,20.7031 107.6563,21.1094 C107.7188,21.5156 107.75,21.6406 107.8906,21.7656 C108.0313,21.9063 108.2656,22.0156 108.4844,22.0156 C108.75,22.0156 109.0156,21.875 109.1875,21.6563 C109.2969,21.5 109.3281,21.3125 109.3281,20.8906 L109.3281,19.4688 C109.3281,19.0313 109.3125,18.9063 109.2188,18.75 C109.0625,18.4844 108.7813,18.3438 108.4844,18.3438 C108.1875,18.3438 107.9844,18.4375 107.7656,18.75 L107.5938,18.6719 Z " fill="#000000"/><text fill="#000000" font-family="sans-serif" font-size="14" lengthAdjust="spacing" textLength="138" x="125.75" y="27.8467">DatabaseResponse</text><line style="stroke:#181818;stroke-width:0.5;" x1="36.5" x2="320.5" y1="39" y2="39"/><ellipse cx="46.5" cy="52.6484" fill="none" rx="3" ry="3" style="stroke:#038048;stroke-width:1.0;"/><text fill="#000000" font-family="sans-serif" font-size="14" lengthAdjust="spacing" textLength="121" x="55.5" y="55.9951">success: boolean</text><ellipse cx="46.5" cy="68.9453" fill="none" rx="3" ry="3" style="stroke:#038048;stroke-width:1.0;"/><text fill="#000000" font-family="sans-serif" font-size="14" lengthAdjust="spacing" textLength="69" x="55.5" y="72.292">data: dict</text><line style="stroke:#181818;stroke-width:0.5;" x1="36.5" x2="320.5" y1="79.5938" y2="79.5938"/><ellipse cx="46.5" cy="93.2422" fill="#84BE84" rx="3" ry="3" style="stroke:#038048;stroke-width:1.0;"/><text fill="#000000" font-family="sans-serif" font-size="14" lengthAdjust="spacing" textLength="260" x="55.5" y="96.5889">__init__(success: boolean, data: dict)</text><ellipse cx="46.5" cy="109.5391" fill="#84BE84" rx="3" ry="3" style="stroke:#038048;stroke-width:1.0;"/><text fill="#000000" font-family="sans-serif" font-size="14" lengthAdjust="spacing" textLength="167" x="55.5" y="112.8857">is_successful(): boolean</text><ellipse cx="46.5" cy="125.8359" fill="#84BE84" rx="3" ry="3" style="stroke:#038048;stroke-width:1.0;"/><text fill="#000000" font-family="sans-serif" font-size="14" lengthAdjust="spacing" textLength="111" x="55.5" y="129.1826">get_data(): dict</text></g><!--link Database to Config--><g id="link_Database_Config"><path codeLine="34" d="M178.5,408.285 C178.5,434.407 178.5,461.791 178.5,484.818 " fill="none" id="Database-Config" style="stroke:#181818;stroke-width:1.0;"/><text fill="#000000" font-family="sans-serif" font-size="13" lengthAdjust="spacing" textLength="54" x="179.5" y="451.0669">uses &gt;&gt;</text></g><!--link DatabaseResponse to Database--><g id="link_DatabaseResponse_Database"><path codeLine="35" d="M178.5,136.012 C178.5,159.595 178.5,186.912 178.5,212.793 " fill="none" id="DatabaseResponse-Database" style="stroke:#181818;stroke-width:1.0;"/><text fill="#000000" font-family="sans-serif" font-size="13" lengthAdjust="spacing" textLength="75" x="179.5" y="179.0669">used by &gt;&gt;</text></g><!--SRC=[TPAnReCm48Ptdk8wXQZ92p14gfAXGwT4cIq31vpa66eVIcdLTw_1nY94HHQ3x__Fv-_t1avOaKOBXPBMWdGB31OiTQqmUIcdAXm_tYuNBqcIJV00DmWdoJAN5eF_Jjp0yNmzGTkXaKojjebtH-LF0kxRGoUvoS2o8LrFMwyW16bY8TAYrHNLOYdP1arXK3AAChHBv_qQEMvEndIxwaxQel6YTFnbK5B1Qt_wsQCPGYq3HPQ3ek_A-UIKIjHC5Q7noXrel8ldhYKg_CypQxhUr0yN-br0bdg0TrIE9hG6haoAUF2qNMhSI8ORrGq3VesJUjR72LyaNUOJ49i1zvsBTGLxLLu2cJXgUSEOmXDJOfAAlZrpwwT_JFoCjdFlO4x-5MnV56ZTUNdRAfHwPXNfhITS6tRmJ9gi2BAgLsFsZyrZlDjmn1AoGUNVQaETJU9BtUzdaXdq8-x38Ncwb1D5moGh8H-SyWy0]--></g></svg>