<?xml version="1.0" encoding="us-ascii" standalone="no"?><svg xmlns="http://www.w3.org/2000/svg" xmlns:xlink="http://www.w3.org/1999/xlink" contentStyleType="text/css" height="544px" preserveAspectRatio="none" style="width:1386px;height:544px;background:#FFFFFF;" version="1.1" viewBox="0 0 1386 544" width="1386px" zoomAndPan="magnify"><defs/><g><!--class SchedulerService--><g id="elem_SchedulerService"><rect codeLine="5" fill="#F1F1F1" height="373.9375" id="SchedulerService" rx="2.5" ry="2.5" style="stroke:#181818;stroke-width:0.5;" width="261" x="505.5" y="7"/><ellipse cx="569.75" cy="23" fill="#ADD1B2" rx="11" ry="11" style="stroke:#181818;stroke-width:1.0;"/><path d="M572.0938,18.6719 C571.1563,18.2344 570.5625,18.0938 569.6875,18.0938 C567.0625,18.0938 565.0625,20.1719 565.0625,22.8906 L565.0625,24.0156 C565.0625,26.5938 567.1719,28.4844 570.0625,28.4844 C571.2813,28.4844 572.4375,28.1875 573.1875,27.6406 C573.7656,27.2344 574.0938,26.7813 574.0938,26.3906 C574.0938,25.9375 573.7031,25.5469 573.2344,25.5469 C573.0156,25.5469 572.8125,25.625 572.625,25.8125 C572.1719,26.2969 572.1719,26.2969 571.9844,26.3906 C571.5625,26.6563 570.875,26.7813 570.1094,26.7813 C568.0625,26.7813 566.7656,25.6875 566.7656,23.9844 L566.7656,22.8906 C566.7656,21.1094 568.0156,19.7969 569.75,19.7969 C570.3281,19.7969 570.9375,19.9531 571.4063,20.2031 C571.8906,20.4844 572.0625,20.7031 572.1563,21.1094 C572.2188,21.5156 572.25,21.6406 572.3906,21.7656 C572.5313,21.9063 572.7656,22.0156 572.9844,22.0156 C573.25,22.0156 573.5156,21.875 573.6875,21.6563 C573.7969,21.5 573.8281,21.3125 573.8281,20.8906 L573.8281,19.4688 C573.8281,19.0313 573.8125,18.9063 573.7188,18.75 C573.5625,18.4844 573.2813,18.3438 572.9844,18.3438 C572.6875,18.3438 572.4844,18.4375 572.2656,18.75 L572.0938,18.6719 Z " fill="#000000"/><text fill="#000000" font-family="sans-serif" font-size="14" lengthAdjust="spacing" textLength="124" x="590.25" y="27.8467">SchedulerService</text><line style="stroke:#181818;stroke-width:0.5;" x1="506.5" x2="765.5" y1="39" y2="39"/><rect fill="none" height="6" style="stroke:#C82930;stroke-width:1.0;" width="6" x="513.5" y="49.6484"/><text fill="#000000" font-family="sans-serif" font-size="14" lengthAdjust="spacing" textLength="123" x="525.5" y="55.9951">ServiceName: str</text><rect fill="none" height="6" style="stroke:#C82930;stroke-width:1.0;" width="6" x="513.5" y="65.9453"/><text fill="#000000" font-family="sans-serif" font-size="14" lengthAdjust="spacing" textLength="109" x="525.5" y="72.292">Logger: Logger</text><rect fill="none" height="6" style="stroke:#C82930;stroke-width:1.0;" width="6" x="513.5" y="82.2422"/><text fill="#000000" font-family="sans-serif" font-size="14" lengthAdjust="spacing" textLength="235" x="525.5" y="88.5889">ThreadPool: ThreadPoolExecutor</text><rect fill="none" height="6" style="stroke:#C82930;stroke-width:1.0;" width="6" x="513.5" y="98.5391"/><text fill="#000000" font-family="sans-serif" font-size="14" lengthAdjust="spacing" textLength="141" x="525.5" y="104.8857">Scheduler: CronTab</text><rect fill="none" height="6" style="stroke:#C82930;stroke-width:1.0;" width="6" x="513.5" y="114.8359"/><text fill="#000000" font-family="sans-serif" font-size="14" lengthAdjust="spacing" textLength="206" x="525.5" y="121.1826">DatabaseManager: Database</text><rect fill="none" height="6" style="stroke:#C82930;stroke-width:1.0;" width="6" x="513.5" y="131.1328"/><text fill="#000000" font-family="sans-serif" font-size="14" lengthAdjust="spacing" textLength="228" x="525.5" y="137.4795">EncryptionManager: Encryption</text><rect fill="none" height="6" style="stroke:#C82930;stroke-width:1.0;" width="6" x="513.5" y="147.4297"/><text fill="#000000" font-family="sans-serif" font-size="14" lengthAdjust="spacing" textLength="164" x="525.5" y="153.7764">ConfigManager: Config</text><rect fill="none" height="6" style="stroke:#C82930;stroke-width:1.0;" width="6" x="513.5" y="163.7266"/><text fill="#000000" font-family="sans-serif" font-size="14" lengthAdjust="spacing" textLength="212" x="525.5" y="170.0732">AuthManager: Authentication</text><line style="stroke:#181818;stroke-width:0.5;" x1="506.5" x2="765.5" y1="177.375" y2="177.375"/><ellipse cx="516.5" cy="191.0234" fill="#84BE84" rx="3" ry="3" style="stroke:#038048;stroke-width:1.0;"/><text fill="#000000" font-family="sans-serif" font-size="14" lengthAdjust="spacing" textLength="70" x="525.5" y="194.3701">SvcStop()</text><ellipse cx="516.5" cy="207.3203" fill="#84BE84" rx="3" ry="3" style="stroke:#038048;stroke-width:1.0;"/><text fill="#000000" font-family="sans-serif" font-size="14" lengthAdjust="spacing" textLength="82" x="525.5" y="210.667">SvcDoRun()</text><ellipse cx="516.5" cy="223.6172" fill="#84BE84" rx="3" ry="3" style="stroke:#038048;stroke-width:1.0;"/><text fill="#000000" font-family="sans-serif" font-size="14" lengthAdjust="spacing" textLength="45" x="525.5" y="226.9639">main()</text><ellipse cx="516.5" cy="239.9141" fill="#84BE84" rx="3" ry="3" style="stroke:#038048;stroke-width:1.0;"/><text fill="#000000" font-family="sans-serif" font-size="14" lengthAdjust="spacing" textLength="51" x="525.5" y="243.2607">setup()</text><ellipse cx="516.5" cy="256.2109" fill="#84BE84" rx="3" ry="3" style="stroke:#038048;stroke-width:1.0;"/><text fill="#000000" font-family="sans-serif" font-size="14" lengthAdjust="spacing" textLength="71" x="525.5" y="259.5576">initialize()</text><ellipse cx="516.5" cy="272.5078" fill="#84BE84" rx="3" ry="3" style="stroke:#038048;stroke-width:1.0;"/><text fill="#000000" font-family="sans-serif" font-size="14" lengthAdjust="spacing" textLength="147" x="525.5" y="275.8545">runScheduledTasks()</text><ellipse cx="516.5" cy="288.8047" fill="#84BE84" rx="3" ry="3" style="stroke:#038048;stroke-width:1.0;"/><text fill="#000000" font-family="sans-serif" font-size="14" lengthAdjust="spacing" textLength="157" x="525.5" y="292.1514">stopScheduledTasks()</text><ellipse cx="516.5" cy="305.1016" fill="#84BE84" rx="3" ry="3" style="stroke:#038048;stroke-width:1.0;"/><text fill="#000000" font-family="sans-serif" font-size="14" lengthAdjust="spacing" textLength="165" x="525.5" y="308.4482">handleDataCollection()</text><ellipse cx="516.5" cy="321.3984" fill="#84BE84" rx="3" ry="3" style="stroke:#038048;stroke-width:1.0;"/><text fill="#000000" font-family="sans-serif" font-size="14" lengthAdjust="spacing" textLength="139" x="525.5" y="324.7451">processEndpoints()</text><ellipse cx="516.5" cy="337.6953" fill="#84BE84" rx="3" ry="3" style="stroke:#038048;stroke-width:1.0;"/><text fill="#000000" font-family="sans-serif" font-size="14" lengthAdjust="spacing" textLength="103" x="525.5" y="341.042">authenticate()</text><ellipse cx="516.5" cy="353.9922" fill="#84BE84" rx="3" ry="3" style="stroke:#038048;stroke-width:1.0;"/><text fill="#000000" font-family="sans-serif" font-size="14" lengthAdjust="spacing" textLength="99" x="525.5" y="357.3389">encryptFiles()</text><ellipse cx="516.5" cy="370.2891" fill="#84BE84" rx="3" ry="3" style="stroke:#038048;stroke-width:1.0;"/><text fill="#000000" font-family="sans-serif" font-size="14" lengthAdjust="spacing" textLength="74" x="525.5" y="373.6357">logEvent()</text></g><!--class Logger--><g id="elem_Logger"><rect codeLine="29" fill="#F1F1F1" height="80.5938" id="Logger" rx="2.5" ry="2.5" style="stroke:#181818;stroke-width:0.5;" width="164" x="7" y="449"/><ellipse cx="59.75" cy="465" fill="#ADD1B2" rx="11" ry="11" style="stroke:#181818;stroke-width:1.0;"/><path d="M62.0938,460.6719 C61.1563,460.2344 60.5625,460.0938 59.6875,460.0938 C57.0625,460.0938 55.0625,462.1719 55.0625,464.8906 L55.0625,466.0156 C55.0625,468.5938 57.1719,470.4844 60.0625,470.4844 C61.2813,470.4844 62.4375,470.1875 63.1875,469.6406 C63.7656,469.2344 64.0938,468.7813 64.0938,468.3906 C64.0938,467.9375 63.7031,467.5469 63.2344,467.5469 C63.0156,467.5469 62.8125,467.625 62.625,467.8125 C62.1719,468.2969 62.1719,468.2969 61.9844,468.3906 C61.5625,468.6563 60.875,468.7813 60.1094,468.7813 C58.0625,468.7813 56.7656,467.6875 56.7656,465.9844 L56.7656,464.8906 C56.7656,463.1094 58.0156,461.7969 59.75,461.7969 C60.3281,461.7969 60.9375,461.9531 61.4063,462.2031 C61.8906,462.4844 62.0625,462.7031 62.1563,463.1094 C62.2188,463.5156 62.25,463.6406 62.3906,463.7656 C62.5313,463.9063 62.7656,464.0156 62.9844,464.0156 C63.25,464.0156 63.5156,463.875 63.6875,463.6563 C63.7969,463.5 63.8281,463.3125 63.8281,462.8906 L63.8281,461.4688 C63.8281,461.0313 63.8125,460.9063 63.7188,460.75 C63.5625,460.4844 63.2813,460.3438 62.9844,460.3438 C62.6875,460.3438 62.4844,460.4375 62.2656,460.75 L62.0938,460.6719 Z " fill="#000000"/><text fill="#000000" font-family="sans-serif" font-size="14" lengthAdjust="spacing" textLength="50" x="80.25" y="469.8467">Logger</text><line style="stroke:#181818;stroke-width:0.5;" x1="8" x2="170" y1="481" y2="481"/><line style="stroke:#181818;stroke-width:0.5;" x1="8" x2="170" y1="489" y2="489"/><ellipse cx="18" cy="502.6484" fill="#84BE84" rx="3" ry="3" style="stroke:#038048;stroke-width:1.0;"/><text fill="#000000" font-family="sans-serif" font-size="14" lengthAdjust="spacing" textLength="124" x="27" y="505.9951">log(message: str)</text><ellipse cx="18" cy="518.9453" fill="#84BE84" rx="3" ry="3" style="stroke:#038048;stroke-width:1.0;"/><text fill="#000000" font-family="sans-serif" font-size="14" lengthAdjust="spacing" textLength="138" x="27" y="522.292">error(message: str)</text></g><!--class ThreadPoolExecutor--><g id="elem_ThreadPoolExecutor"><rect codeLine="34" fill="#F1F1F1" height="80.5938" id="ThreadPoolExecutor" rx="2.5" ry="2.5" style="stroke:#181818;stroke-width:0.5;" width="210" x="206" y="449"/><ellipse cx="235.85" cy="465" fill="#ADD1B2" rx="11" ry="11" style="stroke:#181818;stroke-width:1.0;"/><path d="M238.1938,460.6719 C237.2563,460.2344 236.6625,460.0938 235.7875,460.0938 C233.1625,460.0938 231.1625,462.1719 231.1625,464.8906 L231.1625,466.0156 C231.1625,468.5938 233.2719,470.4844 236.1625,470.4844 C237.3813,470.4844 238.5375,470.1875 239.2875,469.6406 C239.8656,469.2344 240.1938,468.7813 240.1938,468.3906 C240.1938,467.9375 239.8031,467.5469 239.3344,467.5469 C239.1156,467.5469 238.9125,467.625 238.725,467.8125 C238.2719,468.2969 238.2719,468.2969 238.0844,468.3906 C237.6625,468.6563 236.975,468.7813 236.2094,468.7813 C234.1625,468.7813 232.8656,467.6875 232.8656,465.9844 L232.8656,464.8906 C232.8656,463.1094 234.1156,461.7969 235.85,461.7969 C236.4281,461.7969 237.0375,461.9531 237.5063,462.2031 C237.9906,462.4844 238.1625,462.7031 238.2563,463.1094 C238.3188,463.5156 238.35,463.6406 238.4906,463.7656 C238.6313,463.9063 238.8656,464.0156 239.0844,464.0156 C239.35,464.0156 239.6156,463.875 239.7875,463.6563 C239.8969,463.5 239.9281,463.3125 239.9281,462.8906 L239.9281,461.4688 C239.9281,461.0313 239.9125,460.9063 239.8188,460.75 C239.6625,460.4844 239.3813,460.3438 239.0844,460.3438 C238.7875,460.3438 238.5844,460.4375 238.3656,460.75 L238.1938,460.6719 Z " fill="#000000"/><text fill="#000000" font-family="sans-serif" font-size="14" lengthAdjust="spacing" textLength="145" x="253.15" y="469.8467">ThreadPoolExecutor</text><line style="stroke:#181818;stroke-width:0.5;" x1="207" x2="415" y1="481" y2="481"/><line style="stroke:#181818;stroke-width:0.5;" x1="207" x2="415" y1="489" y2="489"/><ellipse cx="217" cy="502.6484" fill="#84BE84" rx="3" ry="3" style="stroke:#038048;stroke-width:1.0;"/><text fill="#000000" font-family="sans-serif" font-size="14" lengthAdjust="spacing" textLength="184" x="226" y="505.9951">submit(function: callable)</text><ellipse cx="217" cy="518.9453" fill="#84BE84" rx="3" ry="3" style="stroke:#038048;stroke-width:1.0;"/><text fill="#000000" font-family="sans-serif" font-size="14" lengthAdjust="spacing" textLength="79" x="226" y="522.292">shutdown()</text></g><!--class CronTab--><g id="elem_CronTab"><rect codeLine="39" fill="#F1F1F1" height="64.2969" id="CronTab" rx="2.5" ry="2.5" style="stroke:#181818;stroke-width:0.5;" width="99" x="451.5" y="457.5"/><ellipse cx="469.2" cy="473.5" fill="#ADD1B2" rx="11" ry="11" style="stroke:#181818;stroke-width:1.0;"/><path d="M471.5438,469.1719 C470.6063,468.7344 470.0125,468.5938 469.1375,468.5938 C466.5125,468.5938 464.5125,470.6719 464.5125,473.3906 L464.5125,474.5156 C464.5125,477.0938 466.6219,478.9844 469.5125,478.9844 C470.7313,478.9844 471.8875,478.6875 472.6375,478.1406 C473.2156,477.7344 473.5438,477.2813 473.5438,476.8906 C473.5438,476.4375 473.1531,476.0469 472.6844,476.0469 C472.4656,476.0469 472.2625,476.125 472.075,476.3125 C471.6219,476.7969 471.6219,476.7969 471.4344,476.8906 C471.0125,477.1563 470.325,477.2813 469.5594,477.2813 C467.5125,477.2813 466.2156,476.1875 466.2156,474.4844 L466.2156,473.3906 C466.2156,471.6094 467.4656,470.2969 469.2,470.2969 C469.7781,470.2969 470.3875,470.4531 470.8563,470.7031 C471.3406,470.9844 471.5125,471.2031 471.6063,471.6094 C471.6688,472.0156 471.7,472.1406 471.8406,472.2656 C471.9813,472.4063 472.2156,472.5156 472.4344,472.5156 C472.7,472.5156 472.9656,472.375 473.1375,472.1563 C473.2469,472 473.2781,471.8125 473.2781,471.3906 L473.2781,469.9688 C473.2781,469.5313 473.2625,469.4063 473.1688,469.25 C473.0125,468.9844 472.7313,468.8438 472.4344,468.8438 C472.1375,468.8438 471.9344,468.9375 471.7156,469.25 L471.5438,469.1719 Z " fill="#000000"/><text fill="#000000" font-family="sans-serif" font-size="14" lengthAdjust="spacing" textLength="61" x="483.8" y="478.3467">CronTab</text><line style="stroke:#181818;stroke-width:0.5;" x1="452.5" x2="549.5" y1="489.5" y2="489.5"/><line style="stroke:#181818;stroke-width:0.5;" x1="452.5" x2="549.5" y1="497.5" y2="497.5"/><ellipse cx="462.5" cy="511.1484" fill="#84BE84" rx="3" ry="3" style="stroke:#038048;stroke-width:1.0;"/><text fill="#000000" font-family="sans-serif" font-size="14" lengthAdjust="spacing" textLength="73" x="471.5" y="514.4951">schedule()</text></g><!--class Database--><g id="elem_Database"><rect codeLine="43" fill="#F1F1F1" height="96.8906" id="Database" rx="2.5" ry="2.5" style="stroke:#181818;stroke-width:0.5;" width="100" x="586" y="441"/><ellipse cx="601" cy="457" fill="#ADD1B2" rx="11" ry="11" style="stroke:#181818;stroke-width:1.0;"/><path d="M603.3438,452.6719 C602.4063,452.2344 601.8125,452.0938 600.9375,452.0938 C598.3125,452.0938 596.3125,454.1719 596.3125,456.8906 L596.3125,458.0156 C596.3125,460.5938 598.4219,462.4844 601.3125,462.4844 C602.5313,462.4844 603.6875,462.1875 604.4375,461.6406 C605.0156,461.2344 605.3438,460.7813 605.3438,460.3906 C605.3438,459.9375 604.9531,459.5469 604.4844,459.5469 C604.2656,459.5469 604.0625,459.625 603.875,459.8125 C603.4219,460.2969 603.4219,460.2969 603.2344,460.3906 C602.8125,460.6563 602.125,460.7813 601.3594,460.7813 C599.3125,460.7813 598.0156,459.6875 598.0156,457.9844 L598.0156,456.8906 C598.0156,455.1094 599.2656,453.7969 601,453.7969 C601.5781,453.7969 602.1875,453.9531 602.6563,454.2031 C603.1406,454.4844 603.3125,454.7031 603.4063,455.1094 C603.4688,455.5156 603.5,455.6406 603.6406,455.7656 C603.7813,455.9063 604.0156,456.0156 604.2344,456.0156 C604.5,456.0156 604.7656,455.875 604.9375,455.6563 C605.0469,455.5 605.0781,455.3125 605.0781,454.8906 L605.0781,453.4688 C605.0781,453.0313 605.0625,452.9063 604.9688,452.75 C604.8125,452.4844 604.5313,452.3438 604.2344,452.3438 C603.9375,452.3438 603.7344,452.4375 603.5156,452.75 L603.3438,452.6719 Z " fill="#000000"/><text fill="#000000" font-family="sans-serif" font-size="14" lengthAdjust="spacing" textLength="68" x="615" y="461.8467">Database</text><line style="stroke:#181818;stroke-width:0.5;" x1="587" x2="685" y1="473" y2="473"/><line style="stroke:#181818;stroke-width:0.5;" x1="587" x2="685" y1="481" y2="481"/><ellipse cx="597" cy="494.6484" fill="#84BE84" rx="3" ry="3" style="stroke:#038048;stroke-width:1.0;"/><text fill="#000000" font-family="sans-serif" font-size="14" lengthAdjust="spacing" textLength="69" x="606" y="497.9951">connect()</text><ellipse cx="597" cy="510.9453" fill="#84BE84" rx="3" ry="3" style="stroke:#038048;stroke-width:1.0;"/><text fill="#000000" font-family="sans-serif" font-size="14" lengthAdjust="spacing" textLength="50" x="606" y="514.292">query()</text><ellipse cx="597" cy="527.2422" fill="#84BE84" rx="3" ry="3" style="stroke:#038048;stroke-width:1.0;"/><text fill="#000000" font-family="sans-serif" font-size="14" lengthAdjust="spacing" textLength="61" x="606" y="530.5889">update()</text></g><!--class Encryption--><g id="elem_Encryption"><rect codeLine="49" fill="#F1F1F1" height="80.5938" id="Encryption" rx="2.5" ry="2.5" style="stroke:#181818;stroke-width:0.5;" width="154" x="721" y="449"/><ellipse cx="755.35" cy="465" fill="#ADD1B2" rx="11" ry="11" style="stroke:#181818;stroke-width:1.0;"/><path d="M757.6938,460.6719 C756.7563,460.2344 756.1625,460.0938 755.2875,460.0938 C752.6625,460.0938 750.6625,462.1719 750.6625,464.8906 L750.6625,466.0156 C750.6625,468.5938 752.7719,470.4844 755.6625,470.4844 C756.8813,470.4844 758.0375,470.1875 758.7875,469.6406 C759.3656,469.2344 759.6938,468.7813 759.6938,468.3906 C759.6938,467.9375 759.3031,467.5469 758.8344,467.5469 C758.6156,467.5469 758.4125,467.625 758.225,467.8125 C757.7719,468.2969 757.7719,468.2969 757.5844,468.3906 C757.1625,468.6563 756.475,468.7813 755.7094,468.7813 C753.6625,468.7813 752.3656,467.6875 752.3656,465.9844 L752.3656,464.8906 C752.3656,463.1094 753.6156,461.7969 755.35,461.7969 C755.9281,461.7969 756.5375,461.9531 757.0063,462.2031 C757.4906,462.4844 757.6625,462.7031 757.7563,463.1094 C757.8188,463.5156 757.85,463.6406 757.9906,463.7656 C758.1313,463.9063 758.3656,464.0156 758.5844,464.0156 C758.85,464.0156 759.1156,463.875 759.2875,463.6563 C759.3969,463.5 759.4281,463.3125 759.4281,462.8906 L759.4281,461.4688 C759.4281,461.0313 759.4125,460.9063 759.3188,460.75 C759.1625,460.4844 758.8813,460.3438 758.5844,460.3438 C758.2875,460.3438 758.0844,460.4375 757.8656,460.75 L757.6938,460.6719 Z " fill="#000000"/><text fill="#000000" font-family="sans-serif" font-size="14" lengthAdjust="spacing" textLength="79" x="773.65" y="469.8467">Encryption</text><line style="stroke:#181818;stroke-width:0.5;" x1="722" x2="874" y1="481" y2="481"/><line style="stroke:#181818;stroke-width:0.5;" x1="722" x2="874" y1="489" y2="489"/><ellipse cx="732" cy="502.6484" fill="#84BE84" rx="3" ry="3" style="stroke:#038048;stroke-width:1.0;"/><text fill="#000000" font-family="sans-serif" font-size="14" lengthAdjust="spacing" textLength="128" x="741" y="505.9951">encrypt(data: str)</text><ellipse cx="732" cy="518.9453" fill="#84BE84" rx="3" ry="3" style="stroke:#038048;stroke-width:1.0;"/><text fill="#000000" font-family="sans-serif" font-size="14" lengthAdjust="spacing" textLength="128" x="741" y="522.292">decrypt(data: str)</text></g><!--class Config--><g id="elem_Config"><rect codeLine="54" fill="#F1F1F1" height="80.5938" id="Config" rx="2.5" ry="2.5" style="stroke:#181818;stroke-width:0.5;" width="263" x="910.5" y="449"/><ellipse cx="1014.25" cy="465" fill="#ADD1B2" rx="11" ry="11" style="stroke:#181818;stroke-width:1.0;"/><path d="M1016.5938,460.6719 C1015.6563,460.2344 1015.0625,460.0938 1014.1875,460.0938 C1011.5625,460.0938 1009.5625,462.1719 1009.5625,464.8906 L1009.5625,466.0156 C1009.5625,468.5938 1011.6719,470.4844 1014.5625,470.4844 C1015.7813,470.4844 1016.9375,470.1875 1017.6875,469.6406 C1018.2656,469.2344 1018.5938,468.7813 1018.5938,468.3906 C1018.5938,467.9375 1018.2031,467.5469 1017.7344,467.5469 C1017.5156,467.5469 1017.3125,467.625 1017.125,467.8125 C1016.6719,468.2969 1016.6719,468.2969 1016.4844,468.3906 C1016.0625,468.6563 1015.375,468.7813 1014.6094,468.7813 C1012.5625,468.7813 1011.2656,467.6875 1011.2656,465.9844 L1011.2656,464.8906 C1011.2656,463.1094 1012.5156,461.7969 1014.25,461.7969 C1014.8281,461.7969 1015.4375,461.9531 1015.9063,462.2031 C1016.3906,462.4844 1016.5625,462.7031 1016.6563,463.1094 C1016.7188,463.5156 1016.75,463.6406 1016.8906,463.7656 C1017.0313,463.9063 1017.2656,464.0156 1017.4844,464.0156 C1017.75,464.0156 1018.0156,463.875 1018.1875,463.6563 C1018.2969,463.5 1018.3281,463.3125 1018.3281,462.8906 L1018.3281,461.4688 C1018.3281,461.0313 1018.3125,460.9063 1018.2188,460.75 C1018.0625,460.4844 1017.7813,460.3438 1017.4844,460.3438 C1017.1875,460.3438 1016.9844,460.4375 1016.7656,460.75 L1016.5938,460.6719 Z " fill="#000000"/><text fill="#000000" font-family="sans-serif" font-size="14" lengthAdjust="spacing" textLength="47" x="1034.75" y="469.8467">Config</text><line style="stroke:#181818;stroke-width:0.5;" x1="911.5" x2="1172.5" y1="481" y2="481"/><line style="stroke:#181818;stroke-width:0.5;" x1="911.5" x2="1172.5" y1="489" y2="489"/><ellipse cx="921.5" cy="502.6484" fill="#84BE84" rx="3" ry="3" style="stroke:#038048;stroke-width:1.0;"/><text fill="#000000" font-family="sans-serif" font-size="14" lengthAdjust="spacing" textLength="87" x="930.5" y="505.9951">loadConfig()</text><ellipse cx="921.5" cy="518.9453" fill="#84BE84" rx="3" ry="3" style="stroke:#038048;stroke-width:1.0;"/><text fill="#000000" font-family="sans-serif" font-size="14" lengthAdjust="spacing" textLength="237" x="930.5" y="522.292">updateConfig(key: str, value: str)</text></g><!--class Authentication--><g id="elem_Authentication"><rect codeLine="59" fill="#F1F1F1" height="80.5938" id="Authentication" rx="2.5" ry="2.5" style="stroke:#181818;stroke-width:0.5;" width="171" x="1208.5" y="449"/><ellipse cx="1237.45" cy="465" fill="#ADD1B2" rx="11" ry="11" style="stroke:#181818;stroke-width:1.0;"/><path d="M1239.7938,460.6719 C1238.8563,460.2344 1238.2625,460.0938 1237.3875,460.0938 C1234.7625,460.0938 1232.7625,462.1719 1232.7625,464.8906 L1232.7625,466.0156 C1232.7625,468.5938 1234.8719,470.4844 1237.7625,470.4844 C1238.9813,470.4844 1240.1375,470.1875 1240.8875,469.6406 C1241.4656,469.2344 1241.7938,468.7813 1241.7938,468.3906 C1241.7938,467.9375 1241.4031,467.5469 1240.9344,467.5469 C1240.7156,467.5469 1240.5125,467.625 1240.325,467.8125 C1239.8719,468.2969 1239.8719,468.2969 1239.6844,468.3906 C1239.2625,468.6563 1238.575,468.7813 1237.8094,468.7813 C1235.7625,468.7813 1234.4656,467.6875 1234.4656,465.9844 L1234.4656,464.8906 C1234.4656,463.1094 1235.7156,461.7969 1237.45,461.7969 C1238.0281,461.7969 1238.6375,461.9531 1239.1063,462.2031 C1239.5906,462.4844 1239.7625,462.7031 1239.8563,463.1094 C1239.9188,463.5156 1239.95,463.6406 1240.0906,463.7656 C1240.2313,463.9063 1240.4656,464.0156 1240.6844,464.0156 C1240.95,464.0156 1241.2156,463.875 1241.3875,463.6563 C1241.4969,463.5 1241.5281,463.3125 1241.5281,462.8906 L1241.5281,461.4688 C1241.5281,461.0313 1241.5125,460.9063 1241.4188,460.75 C1241.2625,460.4844 1240.9813,460.3438 1240.6844,460.3438 C1240.3875,460.3438 1240.1844,460.4375 1239.9656,460.75 L1239.7938,460.6719 Z " fill="#000000"/><text fill="#000000" font-family="sans-serif" font-size="14" lengthAdjust="spacing" textLength="108" x="1254.55" y="469.8467">Authentication</text><line style="stroke:#181818;stroke-width:0.5;" x1="1209.5" x2="1378.5" y1="481" y2="481"/><line style="stroke:#181818;stroke-width:0.5;" x1="1209.5" x2="1378.5" y1="489" y2="489"/><ellipse cx="1219.5" cy="502.6484" fill="#84BE84" rx="3" ry="3" style="stroke:#038048;stroke-width:1.0;"/><text fill="#000000" font-family="sans-serif" font-size="14" lengthAdjust="spacing" textLength="103" x="1228.5" y="505.9951">authenticate()</text><ellipse cx="1219.5" cy="518.9453" fill="#84BE84" rx="3" ry="3" style="stroke:#038048;stroke-width:1.0;"/><text fill="#000000" font-family="sans-serif" font-size="14" lengthAdjust="spacing" textLength="145" x="1228.5" y="522.292">getKeycloakToken()</text></g><!--link SchedulerService to Logger--><g id="link_SchedulerService_Logger"><path codeLine="65" d="M505.327,265.114 C398.193,322.599 250.414,401.891 162.78,448.9122 " fill="none" id="SchedulerService-Logger" style="stroke:#181818;stroke-width:1.0;"/></g><!--link SchedulerService to ThreadPoolExecutor--><g id="link_SchedulerService_ThreadPoolExecutor"><path codeLine="66" d="M505.215,313.109 C451.77,361.374 393.564,413.939 354.949,448.8106 " fill="none" id="SchedulerService-ThreadPoolExecutor" style="stroke:#181818;stroke-width:1.0;"/></g><!--link SchedulerService to CronTab--><g id="link_SchedulerService_CronTab"><path codeLine="67" d="M550.311,381.294 C536.853,410.554 524.437,437.547 515.43,457.1284 " fill="none" id="SchedulerService-CronTab" style="stroke:#181818;stroke-width:1.0;"/></g><!--link SchedulerService to Database--><g id="link_SchedulerService_Database"><path codeLine="68" d="M636,381.294 C636,403.182 636,423.802 636,440.9995 " fill="none" id="SchedulerService-Database" style="stroke:#181818;stroke-width:1.0;"/></g><!--link SchedulerService to Encryption--><g id="link_SchedulerService_Encryption"><path codeLine="69" d="M738.827,381.294 C752.786,406.584 765.811,430.182 776.067,448.7629 " fill="none" id="SchedulerService-Encryption" style="stroke:#181818;stroke-width:1.0;"/></g><!--link SchedulerService to Config--><g id="link_SchedulerService_Config"><path codeLine="70" d="M766.696,289.481 C841.339,343.441 930.984,408.246 987.238,448.9125 " fill="none" id="SchedulerService-Config" style="stroke:#181818;stroke-width:1.0;"/></g><!--link SchedulerService to Authentication--><g id="link_SchedulerService_Authentication"><path codeLine="71" d="M766.605,252.235 C879.229,301.747 1046.11,375.484 1191,441 C1196.65,443.5557 1202.47,446.2016 1208.33,448.8769 " fill="none" id="SchedulerService-Authentication" style="stroke:#181818;stroke-width:1.0;"/></g><!--SRC=[TLJ1Rjim3BtxAxHJFMpz0T-A9BkiAuevFy18Z2r4bZo9IkSD-_UfjYmviHiOYCdtz2ZI3tnWUpnBZOvn1Sun20-po0bqex3u94QKxPwVwdgY5CL3FCDgtgBm2csDzYevHi94Ne5_2nP-Zop6Bz1XnHpPc7usJOEsYlynUMmjWdWrHbMBzyDlv9xCJ4gLAhQpHX_X584z49p0uG_GC6hFYOWVDBT3JzBenCYfoDaPVPPDmgSmOa-UseIy1wX9SaYdlx3wocioVVavntlpq-kKw43cm27vp9LQaWGb_s1AMQ_dPiKHtCNbew7A1r0BMYXyRtrdb0gVDbmlWRqr79qxQD4RgIcVWjnEhe_JTBv9XPcfJ7Eu1cf8_5kO8pZ1S1bEYyaMmMBK0grzqS4GUYMqm8czIMgZWIOZHDkCPSekN3LCUxHDkfErnjuXuHwJnjepIS_vKoUfF7izJgHY79I2ay8qqjQJC6-wNEX5VsMHsCoICviiaRZHEemz3UoNHpkaoFTY6d4Io1vC4d7mPQ32JVS2Lq2-xEZLnG11JAcxsZ5vmM5K-CgkeFngbBV-JggRFccGlkF0GyNBqLnGtrd3eXf5N2jxLwmCyJWlWqreOmriqUPDi8MbDR05BZR0fkwq0BQWsmdz1m00]--></g></svg>